<svg width="196" height="196" viewBox="0 0 196 196" fill="none" xmlns="http://www.w3.org/2000/svg">
<rect width="196" height="196" rx="32" fill="#1E293B"/>
<path d="M128.21 142.414C118.859 121.962 117.236 108.524 114.812 108.524V108.149C123.95 105.218 128.022 98.2587 127.029 87.2748C125.66 74.7307 117.175 68.2118 101.57 67.7112H70.2841C70.0269 67.7112 69.9397 68.0524 70.1633 68.1781C73.9519 70.3286 76.3896 76.1315 76.3896 81.1913V142.087C76.3896 142.262 76.5372 142.401 76.7094 142.392C86.4983 141.882 92.2437 136.017 92.2437 128.182V110.866L92.3376 110.491H97.7475C101.042 110.491 104.549 124.207 111.52 143.537C115.234 153.838 122.617 158.981 133.622 158.981H145.54C145.773 158.981 145.833 158.656 145.616 158.573C142.362 157.351 133.318 153.12 128.212 142.412L128.21 142.414ZM98.9574 100.661H92.2437V76.6972H101.196C106.729 76.6972 109.929 80.4416 110.802 87.9303C110.802 96.418 106.852 100.661 98.9574 100.661Z" fill="#CBD5E1"/>
<path d="M47.2362 31.1741L65.3885 43.7991C65.9294 44.1746 65.9399 44.9747 65.4103 45.3675L53.9261 53.8621C53.3965 54.2549 52.6369 54.0071 52.4399 53.3784L45.7702 32.2572C45.4927 31.3805 46.4824 30.6487 47.2362 31.1741Z" fill="#CBD5E1"/>
<path d="M10.1954 92.5843L31.9747 88.7534C32.6236 88.6398 33.1929 89.1986 33.0901 89.8529L30.8749 103.982C30.7737 104.635 30.0613 104.994 29.4775 104.687L9.91647 94.3894C9.10467 93.9626 9.2952 92.7455 10.2001 92.586L10.1954 92.5843Z" fill="#CBD5E1"/>
<path d="M142.408 151.987C144.904 149.67 147.209 147.15 149.297 144.452C153.238 142.237 163.573 145.793 172.422 148.838C179.651 151.326 185.889 153.473 186.839 151.852C188.022 149.832 182.494 145.718 176.117 140.974C168.76 135.501 160.276 129.188 159.669 124.282C161.359 118.63 162.266 112.639 162.266 106.435C162.266 84.2766 150.684 64.8303 133.257 53.8494C130.873 50.6985 132.392 44.5723 133.619 39.6244C134.553 35.8559 135.318 32.771 134.059 32.2052C132.867 31.668 131.004 34.1648 128.711 37.2386C125.591 41.4193 121.676 46.6672 117.568 46.7995C112.104 45.2178 106.33 44.3702 100.359 44.3702C66.1687 44.3702 38.4519 72.1576 38.4519 106.435V106.509C38.4519 123.058 44.8727 138.616 56.5312 150.319C65.6018 159.423 76.9981 165.346 89.3752 167.526C92.94 168.166 96.6107 168.5 100.359 168.5C108.69 168.5 116.636 166.85 123.891 163.859C120.742 163.015 117.67 161.64 114.848 159.571C110.232 160.833 105.374 161.507 100.359 161.507C70.0212 161.507 45.4274 136.85 45.4274 106.435C45.4274 76.0199 70.0212 51.3635 100.359 51.3635C106.416 51.3635 112.244 52.3463 117.694 54.1617C118.965 55.7926 118.593 58.259 118.26 60.4639C117.927 62.6748 117.633 64.6229 119.075 65.2019C120.312 65.6983 121.244 64.5479 122.373 63.1562C123.924 61.2432 125.844 58.8742 129.432 59.7001C144.961 69.43 155.291 86.7232 155.291 106.435C155.291 110.85 154.773 115.143 153.794 119.257C150.72 124.755 144.601 122.973 139.54 121.499C135.942 120.452 132.88 119.56 131.825 121.549C130.933 123.233 133.166 125.254 135.88 127.709C139.872 131.32 144.905 135.873 142.567 141.684C140.957 143.619 139.217 145.442 137.361 147.139C137.419 147.199 137.477 147.259 137.536 147.319C138.961 148.786 140.584 150.457 142.408 151.987Z" fill="#CBD5E1"/>
<path d="M89.7007 27.5H90.8562C92.0323 27.8198 92.889 28.5215 93.4264 29.605C94.1591 31.0987 95.8988 34.4001 98.6456 39.5094C98.6866 39.5864 98.7469 39.6511 98.8202 39.6968C98.8936 39.7424 98.9773 39.7673 99.0627 39.769C103.824 39.8894 108.209 40.3408 112.218 41.1234C112.924 41.2626 113.42 41.731 113.706 42.5286V43.5162C111.29 46.6804 108.797 49.8388 106.226 52.9917C105.678 53.6651 105.024 53.9661 104.265 53.8946C87.4237 52.3878 72.1435 57.371 60.7919 70.1705C43.8096 89.3132 42.5077 116.289 57.675 137.035C57.7297 137.11 57.7637 137.198 57.7736 137.29C57.7835 137.382 57.7689 137.475 57.7314 137.559L51.9711 150.528C51.8922 150.713 51.7832 150.733 51.6442 150.59C47.849 146.708 44.6758 142.366 42.1244 137.565C42.0229 137.369 41.8613 137.275 41.6397 137.283C37.9986 137.369 34.3312 137.435 30.6375 137.48C28.6873 137.503 27.6559 135.906 27.1768 134.061C25.8353 128.887 24.43 123.712 22.9608 118.535V117.102C23.3478 116.067 23.9772 115.33 24.849 114.89C27.9903 113.294 31.1298 111.667 34.2673 110.008C34.4289 109.921 34.5059 109.788 34.4984 109.607C34.1039 101.368 35.1917 93.3295 37.7619 85.4926C37.7871 85.4112 37.7895 85.3243 37.7686 85.2417C37.7477 85.159 37.7044 85.0838 37.6435 85.0242C34.9268 82.4018 32.2119 79.8152 29.499 77.2644C27.9208 75.7745 28.4562 73.9798 29.4877 72.1965C31.9865 67.8849 34.4759 63.5714 36.9559 59.256C38.1789 57.134 39.6951 56.9873 41.9835 57.7379C45.245 58.8064 48.5066 59.8805 51.7682 60.9603C51.9711 61.028 52.1458 60.9848 52.2923 60.8305C57.737 55.0553 63.999 50.3712 71.0783 46.7782C71.1894 46.7212 71.2819 46.6335 71.3448 46.5254C71.4078 46.4174 71.4385 46.2936 71.4334 46.1687C71.3018 42.7262 71.1722 39.2215 71.0444 35.6549C70.9768 33.7756 71.5123 32.0317 73.4004 31.5859C78.8376 30.2879 84.2711 28.9259 89.7007 27.5Z" fill="#475569"/>
</svg>
