<svg width="196" height="196" viewBox="0 0 196 196" fill="none" xmlns="http://www.w3.org/2000/svg">
<rect width="196" height="196" fill="#1E293B"/>
<path d="M126.173 139.264C117.453 120.262 115.939 107.778 113.678 107.778V107.429C122.2 104.706 125.998 98.2402 125.072 88.0353C123.796 76.3808 115.883 70.3242 101.329 69.8591H72.1526C71.9127 69.8591 71.8314 70.1761 72.04 70.2929C75.5731 72.291 77.8464 77.6823 77.8464 82.3832V138.96C77.8464 139.122 77.9841 139.252 78.1447 139.243C87.2736 138.77 92.6317 133.32 92.6317 126.041V109.953L92.7193 109.605H97.7645C100.837 109.605 104.107 122.348 110.608 140.307C114.072 149.878 120.957 154.656 131.221 154.656H142.335C142.552 154.656 142.608 154.354 142.406 154.276C139.371 153.142 130.937 149.21 126.175 139.262L126.173 139.264ZM98.8929 100.472H92.6317V78.2078H100.981C106.141 78.2078 109.125 81.6866 109.939 88.6443C109.939 96.53 106.255 100.472 98.8929 100.472Z" fill="#CBD5E1"/>
<path d="M50.6585 35.9135L67.5871 47.6431C68.0915 47.992 68.1013 48.7354 67.6074 49.1003L56.8974 56.9925C56.4035 57.3574 55.6951 57.1271 55.5113 56.5431L49.2914 36.9198C49.0325 36.1053 49.9555 35.4254 50.6585 35.9135Z" fill="#CBD5E1"/>
<path d="M16.1148 92.9684L36.4259 89.4092C37.031 89.3036 37.5619 89.8228 37.466 90.4307L35.4002 103.558C35.3058 104.164 34.6415 104.498 34.097 104.213L15.8547 94.6455C15.0976 94.2489 15.2753 93.1182 16.1192 92.97L16.1148 92.9684Z" fill="#CBD5E1"/>
<path d="M139.414 148.158C141.742 146.006 143.891 143.664 145.839 141.158C149.514 139.099 159.152 142.403 167.404 145.233C174.147 147.544 179.964 149.539 180.85 148.033C181.953 146.156 176.797 142.334 170.851 137.926C163.99 132.841 156.077 126.976 155.511 122.418C157.087 117.166 157.934 111.6 157.934 105.837C157.934 85.2498 147.132 67.1827 130.88 56.9806C128.657 54.0532 130.073 48.3614 131.217 43.7645C132.089 40.2632 132.802 37.3971 131.629 36.8714C130.516 36.3723 128.779 38.6921 126.64 41.5478C123.731 45.432 120.08 50.3077 116.248 50.4307C111.154 48.9611 105.769 48.1737 100.2 48.1737C68.3147 48.1737 42.4664 73.9903 42.4664 105.837V105.905C42.4664 121.28 48.4544 135.736 59.3269 146.608C67.786 155.067 78.414 160.569 89.9567 162.595C93.2812 163.19 96.7044 163.5 100.2 163.5C107.969 163.5 115.38 161.967 122.145 159.188C119.209 158.404 116.344 157.126 113.712 155.204C109.407 156.377 104.877 157.003 100.2 157.003C71.9074 157.003 48.9716 134.095 48.9716 105.837C48.9716 77.5787 71.9074 54.6709 100.2 54.6709C105.849 54.6709 111.284 55.5841 116.366 57.2707C117.551 58.7859 117.205 61.0774 116.895 63.1259C116.584 65.1801 116.31 66.9899 117.655 67.5279C118.808 67.9891 119.677 66.9203 120.73 65.6273C122.176 63.85 123.967 61.649 127.313 62.4163C141.795 71.4562 151.429 87.5228 151.429 105.837C151.429 109.938 150.945 113.927 150.033 117.75C147.166 122.857 141.459 121.202 136.739 119.832C133.384 118.859 130.528 118.031 129.545 119.879C128.712 121.444 130.795 123.321 133.327 125.602C137.049 128.957 141.743 133.187 139.562 138.585C138.061 140.384 136.439 142.077 134.708 143.654C134.762 143.709 134.816 143.765 134.871 143.821C136.2 145.184 137.713 146.737 139.414 148.158Z" fill="#CBD5E1"/>
<path d="M90.2603 32.5H91.3378C92.4346 32.7971 93.2336 33.449 93.7347 34.4557C94.418 35.8434 96.0405 38.9107 98.6021 43.6576C98.6404 43.7292 98.6966 43.7893 98.765 43.8317C98.8333 43.8742 98.9114 43.8973 98.9911 43.8988C103.431 44.0107 107.52 44.4301 111.259 45.1572C111.918 45.2865 112.381 45.7217 112.647 46.4628V47.3803C110.394 50.3201 108.069 53.2545 105.672 56.1838C105.16 56.8095 104.551 57.0891 103.843 57.0227C88.1367 55.6227 73.8867 60.2525 63.3004 72.1442C47.4629 89.9293 46.2487 114.992 60.3936 134.266C60.4446 134.336 60.4762 134.418 60.4855 134.504C60.4947 134.589 60.4811 134.676 60.4462 134.754L55.0742 146.803C55.0006 146.974 54.8989 146.993 54.7693 146.861C51.23 143.253 48.2707 139.219 45.8913 134.759C45.7967 134.577 45.646 134.49 45.4392 134.497C42.0436 134.577 38.6235 134.639 35.1788 134.68C33.3601 134.701 32.3982 133.218 31.9514 131.503C30.7004 126.697 29.3898 121.889 28.0197 117.079V115.747C28.3806 114.786 28.9676 114.101 29.7805 113.692C32.7101 112.21 35.6379 110.698 38.5639 109.156C38.7146 109.076 38.7864 108.952 38.7794 108.784C38.4115 101.129 39.426 93.6608 41.8229 86.3796C41.8464 86.304 41.8486 86.2233 41.8291 86.1465C41.8097 86.0697 41.7693 85.9998 41.7125 85.9444C39.1789 83.5081 36.6471 81.1049 34.117 78.735C32.6453 77.3508 33.1446 75.6834 34.1065 74.0265C36.4368 70.0207 38.7584 66.0131 41.0712 62.0038C42.2118 60.0323 43.6258 59.896 45.7599 60.5933C48.8016 61.5861 51.8432 62.584 54.8849 63.5872C55.0742 63.6501 55.2371 63.6099 55.3738 63.4666C60.4514 58.101 66.2912 53.7491 72.8932 50.4109C72.9969 50.358 73.0832 50.2765 73.1418 50.1761C73.2005 50.0758 73.2292 49.9607 73.2244 49.8447C73.1017 46.6463 72.9808 43.3902 72.8617 40.0765C72.7986 38.3305 73.298 36.7103 75.0589 36.2961C80.1295 35.0902 85.1966 33.8248 90.2603 32.5Z" fill="#475569"/>
</svg>
