<svg width="512" height="512" viewBox="0 0 512 512" fill="none" xmlns="http://www.w3.org/2000/svg">
<path d="M342.896 384.203C316 325.166 311.33 286.378 304.357 286.378V285.296C330.642 276.834 342.356 256.747 339.5 225.041C335.563 188.832 311.156 170.015 266.268 168.57H176.278C175.538 168.57 175.287 169.555 175.931 169.918C186.828 176.126 193.84 192.876 193.84 207.481V383.257C193.84 383.762 194.264 384.164 194.76 384.138C222.916 382.667 239.443 365.736 239.443 343.121V293.137L239.713 292.055H255.274C264.75 292.055 274.836 331.646 294.888 387.443C305.573 417.178 326.808 432.023 358.464 432.023H392.745C393.414 432.023 393.588 431.084 392.964 430.844C383.604 427.319 357.589 415.105 342.903 384.196L342.896 384.203ZM258.754 263.68H239.443V194.509H265.193C281.108 194.509 290.314 205.317 292.823 226.933C292.823 251.433 281.462 263.68 258.754 263.68Z" fill="#CBD5E1"/>
<path d="M109.983 63.1054L162.196 99.5477C163.752 100.632 163.782 102.941 162.259 104.075L129.225 128.595C127.702 129.729 125.517 129.013 124.951 127.199L105.766 66.2318C104.968 63.7012 107.814 61.5889 109.983 63.1054Z" fill="#CBD5E1"/>
<path d="M3.43851 240.368L66.0847 229.31C67.9511 228.982 69.5886 230.594 69.2928 232.483L62.9211 273.267C62.63 275.151 60.581 276.189 58.9016 275.303L2.63622 245.578C0.301149 244.346 0.849197 240.833 3.45205 240.372L3.43851 240.368Z" fill="#CBD5E1"/>
<path d="M383.734 411.835C390.913 405.148 397.544 397.873 403.55 390.086C414.888 383.69 444.613 393.956 470.066 402.746C490.862 409.928 508.805 416.125 511.538 411.445C514.941 405.613 499.038 393.739 480.697 380.046C459.536 364.246 435.13 346.024 433.384 331.862C438.245 315.548 440.856 298.255 440.856 280.348C440.856 216.387 407.54 160.255 357.414 128.558C350.556 119.463 354.925 101.779 358.454 87.4973C361.141 76.6193 363.342 67.7146 359.722 66.0815C356.291 64.5307 350.932 71.738 344.336 80.6105C335.364 92.6781 324.102 107.826 312.284 108.208C296.57 103.643 279.962 101.196 262.786 101.196C164.44 101.196 84.7156 181.405 84.7156 280.348V280.561C84.7156 328.329 103.184 373.24 136.719 407.019C162.81 433.3 195.59 450.394 231.191 456.689C241.445 458.536 252.004 459.5 262.786 459.5C286.748 459.5 309.605 454.738 330.472 446.104C321.415 443.667 312.579 439.698 304.46 433.726C291.184 437.369 277.21 439.314 262.786 439.314C175.522 439.314 104.78 368.142 104.78 280.348C104.78 192.554 175.522 121.382 262.786 121.382C280.209 121.382 296.973 124.219 312.647 129.459C316.303 134.167 315.233 141.286 314.277 147.651C313.318 154.033 312.473 159.656 316.621 161.327C320.178 162.76 322.861 159.44 326.106 155.422C330.567 149.9 336.091 143.062 346.411 145.446C391.078 173.532 420.792 223.449 420.792 280.348C420.792 293.091 419.301 305.484 416.487 317.359C407.643 333.227 390.042 328.084 375.485 323.831C365.137 320.807 356.328 318.233 353.295 323.975C350.727 328.837 357.151 334.668 364.959 341.756C376.441 352.179 390.918 365.32 384.192 382.094C379.562 387.68 374.558 392.942 369.218 397.841C369.385 398.013 369.553 398.186 369.721 398.36C373.82 402.596 378.488 407.419 383.734 411.835Z" fill="#CBD5E1"/>
<path d="M232.128 52.5H235.451C238.834 53.4231 241.299 55.4485 242.844 58.5762C244.952 62.8876 249.956 72.4174 257.857 87.1653C257.975 87.3878 258.148 87.5745 258.359 87.7063C258.57 87.838 258.811 87.91 259.057 87.9147C272.751 88.2622 285.364 89.5654 296.896 91.8243C298.928 92.2261 300.355 93.5782 301.176 95.8805V98.7313C294.227 107.865 287.055 116.982 279.663 126.082C278.085 128.026 276.204 128.895 274.021 128.689C225.578 124.339 181.626 138.723 148.974 175.669C100.127 230.925 96.3815 308.792 140.009 368.674C140.166 368.892 140.264 369.146 140.292 369.412C140.321 369.678 140.279 369.946 140.171 370.189L123.602 407.624C123.375 408.156 123.062 408.216 122.662 407.803C111.745 396.596 102.618 384.063 95.279 370.206C94.9872 369.641 94.5224 369.369 93.8847 369.391C83.4115 369.641 72.8627 369.831 62.2381 369.961C56.6287 370.027 53.6618 365.416 52.2837 360.09C48.4252 345.157 44.3829 330.219 40.1569 315.275V311.138C41.2701 308.151 43.0805 306.023 45.588 304.752C54.6237 300.147 63.654 295.45 72.6789 290.661C73.1437 290.411 73.3653 290.026 73.3436 289.505C72.2088 265.721 75.3378 242.519 82.7306 219.897C82.8033 219.662 82.81 219.411 82.75 219.173C82.6899 218.934 82.5654 218.717 82.3902 218.545C74.5758 210.975 66.7668 203.509 58.9632 196.146C54.4238 191.845 55.9639 186.665 58.9308 181.518C66.1183 169.072 73.2788 156.621 80.4122 144.164C83.9303 138.039 88.2915 137.616 94.8737 139.782C104.255 142.867 113.637 145.967 123.018 149.084C123.602 149.279 124.105 149.155 124.526 148.709C140.187 132.039 158.199 118.518 178.562 108.147C178.882 107.982 179.148 107.729 179.329 107.417C179.51 107.106 179.598 106.748 179.583 106.388C179.205 96.4507 178.832 86.3345 178.465 76.0392C178.27 70.6146 179.81 65.5809 185.242 64.294C200.881 60.5473 216.51 56.616 232.128 52.5Z" fill="#475569"/>
</svg>
