<svg width="36" height="36" viewBox="0 0 36 36" fill="none" xmlns="http://www.w3.org/2000/svg">
<path fill-rule="evenodd" clip-rule="evenodd" d="M13.7276 13.7473C14.0143 14.1952 14.2952 14.6341 14.6382 15.0173C15.0815 15.5126 15.5679 15.9693 16.0543 16.426L16.0543 16.426C16.2667 16.6254 16.479 16.8248 16.6878 17.0274C16.7136 17.0524 16.7327 17.0845 16.7252 17.1919C16.5466 17.139 16.3675 17.0876 16.1885 17.0361C15.7963 16.9234 15.4042 16.8107 15.0172 16.6822C13.422 16.1524 11.9082 15.4632 10.7335 14.2156C9.77872 13.2014 9.28762 11.9794 9.12174 10.5876C8.98346 9.42736 9.1553 8.36176 9.71891 7.35169C10.3921 6.14521 11.4012 5.27104 12.546 4.53675C12.7202 4.42505 12.9008 4.32348 13.1148 4.20318L13.1149 4.20315C13.2243 4.14162 13.3425 4.07519 13.473 4C12.0676 7.13221 11.8238 10.1803 13.4063 13.2528C13.5164 13.4173 13.6224 13.5829 13.7276 13.7473ZM20.4608 27.6633C19.4191 28.9626 18.6516 30.3837 18.0028 32C17.4497 30.6259 16.8059 29.3845 15.9813 28.2381C15.1486 27.0802 14.2059 26.0363 13.0398 25.15C13.4771 24.8212 13.9095 24.7028 14.4251 24.8766C15.093 25.1017 15.769 25.1904 16.3773 24.7121C16.9121 24.2916 17.2624 23.7294 17.4024 23.0734C17.6169 22.0678 17.6082 21.0543 16.9094 20.2261C16.5199 19.7647 16.0188 19.3731 15.5082 19.0424C14.2324 18.2166 12.8012 17.8847 11.2916 17.7602C9.90386 17.6457 8.61891 17.1641 7.59956 16.1795C6.85745 15.4627 6.44004 14.5604 6.28153 13.5212C6.028 11.859 6.4386 10.321 7.04842 8.80817C7.11115 8.65258 7.18022 8.49954 7.2637 8.31459C7.30714 8.21836 7.35447 8.11349 7.40685 7.99512C7.42547 8.15876 7.44266 8.30876 7.45883 8.44968L7.45896 8.45091L7.45906 8.45173C7.49133 8.73309 7.51945 8.97828 7.54641 9.22361C7.74519 11.0327 8.30726 12.6888 9.45791 14.1409C10.1786 15.0504 11.1402 15.6012 12.1085 16.1559L12.1535 16.1816C12.7508 16.5239 13.3537 16.8567 13.9564 17.1894C14.6069 17.5485 15.2574 17.9076 15.9011 18.2786C16.7982 18.7958 17.4774 19.5415 17.9908 20.4564C18.0729 20.3447 18.152 20.2319 18.2307 20.1197V20.1196C18.4013 19.8763 18.5698 19.6359 18.7625 19.4166C19.5434 18.5276 20.5593 17.9787 21.5773 17.4286C21.7289 17.3466 21.8806 17.2646 22.0316 17.1815C23.164 16.558 24.293 15.9209 25.3754 15.2161C26.5718 14.437 27.2932 13.2691 27.8114 11.9567C28.2985 10.7232 28.4924 9.43828 28.582 8.05393C28.6135 8.09952 28.6428 8.13825 28.6693 8.17313V8.1732L28.6694 8.17322C28.7186 8.2383 28.7578 8.28998 28.7825 8.34783C29.3924 9.77691 29.8582 11.2416 29.8139 12.8198C29.7782 14.0954 29.3794 15.2515 28.4529 16.1418C27.5494 17.0102 26.4393 17.538 25.1817 17.6867C25.141 17.6915 25.1003 17.6963 25.0595 17.7011L25.0515 17.7021C23.6836 17.8632 22.3144 18.0246 21.0851 18.7063L21.0248 18.7397C20.1366 19.2319 19.2353 19.7314 18.7875 20.731C18.2625 21.9031 18.4297 23.779 19.6379 24.7073C20.1614 25.1095 20.7481 25.141 21.35 24.9315C21.9148 24.7351 22.4436 24.7473 22.8852 25.0704L22.8776 25.0784L22.8776 25.0785C22.0822 25.9294 21.2821 26.7855 20.4608 27.6633ZM18.5975 27.0169C18.5975 27.0169 18.0455 26.5637 17.9938 26.4732C17.6961 26.6804 17.4957 26.8846 17.3147 27.0689C17.1658 27.2208 17.0299 27.3592 16.8636 27.4749L17.9938 29.3137L19.1528 27.4401C18.9039 27.2955 18.5975 27.0169 18.5975 27.0169ZM18.47 25.2173L18.0736 24.724L16.2557 26.297C16.9674 26.3818 17.5595 26.064 18.0028 25.5113C18.0312 25.5357 18.0593 25.5599 18.0873 25.5839L18.0879 25.5845C18.592 26.0187 19.0433 26.4074 19.7787 26.2887L19.7785 26.2885C19.3517 25.9413 18.9322 25.6003 18.47 25.2173ZM6.35042 20.8114C5.02465 20.1748 4.39765 19.0537 4.12692 17.722C3.87702 16.4926 4.02807 15.2592 4.30367 14.0436C4.31455 13.9957 4.34701 13.9526 4.38106 13.9074C4.39742 13.8857 4.41414 13.8635 4.42901 13.8401C4.54641 14.0331 4.66074 14.2258 4.77443 14.4176H4.77444H4.77445L4.77447 14.4177H4.77449C5.02247 14.836 5.26742 15.2491 5.53473 15.6473C6.4783 17.0528 7.70958 18.1034 9.39648 18.4808C10.0742 18.6324 10.7857 18.6618 11.4839 18.6869C12.5829 18.7263 13.6747 18.8021 14.7317 19.12C15.5279 19.3596 16.0934 19.8699 16.2886 20.699C16.5301 21.7246 16.5433 22.7339 15.9133 23.655C15.5667 24.1617 14.7539 24.4524 14.142 24.289C13.7127 24.1744 13.3563 23.6404 13.3422 23.1802C13.524 23.1189 13.7045 23.0617 13.8834 23.0052C14.2832 22.8787 14.6741 22.7552 15.0486 22.5938C15.6436 22.3376 15.8898 21.7333 15.7438 20.9841C15.6327 20.4131 15.2656 20.0735 14.6398 19.9313C14.1269 19.8147 13.6993 19.9121 13.2657 20.1409C12.2764 20.663 11.2585 21.1035 10.1528 21.3283C8.83214 21.5967 7.57232 21.4702 6.35042 20.8114ZM31.5871 13.7504C30.9633 14.9809 30.3189 16.0737 29.3337 16.9598C28.0836 18.2311 26.534 18.6296 24.8433 18.7021C23.8417 18.7451 22.8341 18.8049 21.8461 18.9624C20.8512 19.121 19.9738 19.5602 19.7196 20.6587C19.6063 21.1481 19.5666 21.6786 19.6223 22.1761C19.6763 22.6593 19.824 23.1634 20.0586 23.5876C20.39 24.187 21.216 24.4525 21.8708 24.2888C22.2703 24.1889 22.614 23.6707 22.6704 23.1134C22.5248 23.0795 22.3773 23.0515 22.2301 23.0235C21.9053 22.9619 21.5823 22.9005 21.2852 22.7769C20.4659 22.436 20.0626 21.8911 20.2271 21.1427C20.4775 20.0038 21.5397 19.5478 22.6035 20.0637C22.7391 20.1294 22.8743 20.1963 23.0096 20.2631C23.4491 20.4803 23.8889 20.6976 24.3428 20.8789C25.7866 21.4556 27.2716 21.6993 28.7891 21.1963C30.127 20.7528 31.1343 19.9179 31.6403 18.5654C32.0709 17.4144 32.0571 16.2228 31.8975 15.0294C31.8614 14.7587 31.7879 14.4931 31.707 14.2003V14.2003L31.7069 14.2C31.6676 14.0578 31.6265 13.9091 31.5871 13.7504ZM25.4999 13.9497C26.8533 12.4284 27.4257 9.32776 26.3242 7.46211C25.7539 6.11501 23.6114 4.42213 22.5792 4.11634C23.5966 6.43497 24.0624 8.79495 23.3672 11.27C22.6791 13.7204 21.1967 15.6198 19.2104 17.1878C20.1126 16.9432 20.9905 16.6712 21.8511 16.3524C23.2496 15.8344 24.4883 15.0869 25.4999 13.9497Z" fill="#39CAC1"/>
<g opacity="0.7" filter="url(#filter0_f_7_2172)">
<path fill-rule="evenodd" clip-rule="evenodd" d="M13.7276 13.7473C14.0143 14.1952 14.2952 14.6341 14.6382 15.0173C15.0815 15.5126 15.5679 15.9693 16.0543 16.426L16.0543 16.426C16.2667 16.6254 16.479 16.8248 16.6878 17.0274C16.7136 17.0524 16.7327 17.0845 16.7252 17.1919C16.5466 17.139 16.3675 17.0876 16.1885 17.0361C15.7963 16.9234 15.4042 16.8107 15.0172 16.6822C13.422 16.1524 11.9082 15.4632 10.7335 14.2156C9.77872 13.2014 9.28762 11.9794 9.12174 10.5876C8.98346 9.42736 9.1553 8.36176 9.71891 7.35169C10.3921 6.14521 11.4012 5.27104 12.546 4.53675C12.7202 4.42505 12.9008 4.32348 13.1148 4.20318L13.1149 4.20315C13.2243 4.14162 13.3425 4.07519 13.473 4C12.0676 7.13221 11.8238 10.1803 13.4063 13.2528C13.5164 13.4173 13.6224 13.5829 13.7276 13.7473ZM20.4608 27.6633C19.4191 28.9626 18.6516 30.3837 18.0028 32C17.4497 30.6259 16.8059 29.3845 15.9813 28.2381C15.1486 27.0802 14.2059 26.0363 13.0398 25.15C13.4771 24.8212 13.9095 24.7028 14.4251 24.8766C15.093 25.1017 15.769 25.1904 16.3773 24.7121C16.9121 24.2916 17.2624 23.7294 17.4024 23.0734C17.6169 22.0678 17.6082 21.0543 16.9094 20.2261C16.5199 19.7647 16.0188 19.3731 15.5082 19.0424C14.2324 18.2166 12.8012 17.8847 11.2916 17.7602C9.90386 17.6457 8.61891 17.1641 7.59956 16.1795C6.85745 15.4627 6.44004 14.5604 6.28153 13.5212C6.028 11.859 6.4386 10.321 7.04842 8.80817C7.11115 8.65258 7.18022 8.49954 7.2637 8.31459C7.30714 8.21836 7.35447 8.11349 7.40685 7.99512C7.42547 8.15876 7.44266 8.30876 7.45883 8.44968L7.45896 8.45091L7.45906 8.45173C7.49133 8.73309 7.51945 8.97828 7.54641 9.22361C7.74519 11.0327 8.30726 12.6888 9.45791 14.1409C10.1786 15.0504 11.1402 15.6012 12.1085 16.1559L12.1535 16.1816C12.7508 16.5239 13.3537 16.8567 13.9564 17.1894C14.6069 17.5485 15.2574 17.9076 15.9011 18.2786C16.7982 18.7958 17.4774 19.5415 17.9908 20.4564C18.0729 20.3447 18.152 20.2319 18.2307 20.1197V20.1196C18.4013 19.8763 18.5698 19.6359 18.7625 19.4166C19.5434 18.5276 20.5593 17.9787 21.5773 17.4286C21.7289 17.3466 21.8806 17.2646 22.0316 17.1815C23.164 16.558 24.293 15.9209 25.3754 15.2161C26.5718 14.437 27.2932 13.2691 27.8114 11.9567C28.2985 10.7232 28.4924 9.43828 28.582 8.05393C28.6135 8.09952 28.6428 8.13825 28.6693 8.17313V8.1732L28.6694 8.17322C28.7186 8.2383 28.7578 8.28998 28.7825 8.34783C29.3924 9.77691 29.8582 11.2416 29.8139 12.8198C29.7782 14.0954 29.3794 15.2515 28.4529 16.1418C27.5494 17.0102 26.4393 17.538 25.1817 17.6867C25.141 17.6915 25.1003 17.6963 25.0595 17.7011L25.0515 17.7021C23.6836 17.8632 22.3144 18.0246 21.0851 18.7063L21.0248 18.7397C20.1366 19.2319 19.2353 19.7314 18.7875 20.731C18.2625 21.9031 18.4297 23.779 19.6379 24.7073C20.1614 25.1095 20.7481 25.141 21.35 24.9315C21.9148 24.7351 22.4436 24.7473 22.8852 25.0704L22.8776 25.0784L22.8776 25.0785C22.0822 25.9294 21.2821 26.7855 20.4608 27.6633ZM18.5975 27.0169C18.5975 27.0169 18.0455 26.5637 17.9938 26.4732C17.6961 26.6804 17.4957 26.8846 17.3147 27.0689C17.1658 27.2208 17.0299 27.3592 16.8636 27.4749L17.9938 29.3137L19.1528 27.4401C18.9039 27.2955 18.5975 27.0169 18.5975 27.0169ZM18.47 25.2173L18.0736 24.724L16.2557 26.297C16.9674 26.3818 17.5595 26.064 18.0028 25.5113C18.0312 25.5357 18.0593 25.5599 18.0873 25.5839L18.0879 25.5845C18.592 26.0187 19.0433 26.4074 19.7787 26.2887L19.7785 26.2885C19.3517 25.9413 18.9322 25.6003 18.47 25.2173ZM6.35042 20.8114C5.02465 20.1748 4.39765 19.0537 4.12692 17.722C3.87702 16.4926 4.02807 15.2592 4.30367 14.0436C4.31455 13.9957 4.34701 13.9526 4.38106 13.9074C4.39742 13.8857 4.41414 13.8635 4.42901 13.8401C4.54641 14.0331 4.66074 14.2258 4.77443 14.4176H4.77444H4.77445L4.77447 14.4177H4.77449C5.02247 14.836 5.26742 15.2491 5.53473 15.6473C6.4783 17.0528 7.70958 18.1034 9.39648 18.4808C10.0742 18.6324 10.7857 18.6618 11.4839 18.6869C12.5829 18.7263 13.6747 18.8021 14.7317 19.12C15.5279 19.3596 16.0934 19.8699 16.2886 20.699C16.5301 21.7246 16.5433 22.7339 15.9133 23.655C15.5667 24.1617 14.7539 24.4524 14.142 24.289C13.7127 24.1744 13.3563 23.6404 13.3422 23.1802C13.524 23.1189 13.7045 23.0617 13.8834 23.0052C14.2832 22.8787 14.6741 22.7552 15.0486 22.5938C15.6436 22.3376 15.8898 21.7333 15.7438 20.9841C15.6327 20.4131 15.2656 20.0735 14.6398 19.9313C14.1269 19.8147 13.6993 19.9121 13.2657 20.1409C12.2764 20.663 11.2585 21.1035 10.1528 21.3283C8.83214 21.5967 7.57232 21.4702 6.35042 20.8114ZM31.5871 13.7504C30.9633 14.9809 30.3189 16.0737 29.3337 16.9598C28.0836 18.2311 26.534 18.6296 24.8433 18.7021C23.8417 18.7451 22.8341 18.8049 21.8461 18.9624C20.8512 19.121 19.9738 19.5602 19.7196 20.6587C19.6063 21.1481 19.5666 21.6786 19.6223 22.1761C19.6763 22.6593 19.824 23.1634 20.0586 23.5876C20.39 24.187 21.216 24.4525 21.8708 24.2888C22.2703 24.1889 22.614 23.6707 22.6704 23.1134C22.5248 23.0795 22.3773 23.0515 22.2301 23.0235C21.9053 22.9619 21.5823 22.9005 21.2852 22.7769C20.4659 22.436 20.0626 21.8911 20.2271 21.1427C20.4775 20.0038 21.5397 19.5478 22.6035 20.0637C22.7391 20.1294 22.8743 20.1963 23.0096 20.2631C23.4491 20.4803 23.8889 20.6976 24.3428 20.8789C25.7866 21.4556 27.2716 21.6993 28.7891 21.1963C30.127 20.7528 31.1343 19.9179 31.6403 18.5654C32.0709 17.4144 32.0571 16.2228 31.8975 15.0294C31.8614 14.7587 31.7879 14.4931 31.707 14.2003V14.2003L31.7069 14.2C31.6676 14.0578 31.6265 13.9091 31.5871 13.7504ZM25.4999 13.9497C26.8533 12.4284 27.4257 9.32776 26.3242 7.46211C25.7539 6.11501 23.6114 4.42213 22.5792 4.11634C23.5966 6.43497 24.0624 8.79495 23.3672 11.27C22.6791 13.7204 21.1967 15.6198 19.2104 17.1878C20.1126 16.9432 20.9905 16.6712 21.8511 16.3524C23.2496 15.8344 24.4883 15.0869 25.4999 13.9497Z" fill="#39CAC1"/>
</g>
<defs>
<filter id="filter0_f_7_2172" x="0" y="0" width="36" height="36" filterUnits="userSpaceOnUse" color-interpolation-filters="sRGB">
<feFlood flood-opacity="0" result="BackgroundImageFix"/>
<feBlend mode="normal" in="SourceGraphic" in2="BackgroundImageFix" result="shape"/>
<feGaussianBlur stdDeviation="2" result="effect1_foregroundBlur_7_2172"/>
</filter>
</defs>
</svg>
