<svg width="34" height="36" viewBox="0 0 34 36" fill="none" xmlns="http://www.w3.org/2000/svg">
<path d="M29.4646 6.03989C29.7817 5.88299 30.117 6.21825 29.9601 6.53543L25.204 16.1503C25.1578 16.2437 25.1532 16.3522 25.1912 16.4492L28.6332 25.2323C28.7463 25.5208 28.4757 25.8121 28.1796 25.7206L20.3595 23.3031C20.2632 23.2733 20.1588 23.2841 20.0707 23.3331L4.55146 31.9515C4.22629 32.1321 3.86793 31.7737 4.04851 31.4486L12.6672 15.9288C12.716 15.841 12.727 15.737 12.6975 15.6409L10.2929 7.78959C10.2021 7.49313 10.4945 7.22323 10.7827 7.33734L19.5503 10.808C19.6476 10.8465 19.7566 10.842 19.8504 10.7956L29.4646 6.03989Z" fill="#F8FAFC"/>
</svg>
