<svg width="34" height="36" viewBox="0 0 34 36" fill="none" xmlns="http://www.w3.org/2000/svg">
<path fill-rule="evenodd" clip-rule="evenodd" d="M18.9291 7.72549C19.572 8.76264 20.1973 9.77612 20.818 10.7824L20.8191 10.7841L19.7521 10.3545C18.5587 11.9004 16.9794 14.698 17.0852 16.3529C17.0195 16.109 16.9615 15.8716 16.9048 15.6399V15.6398C16.78 15.1297 16.6621 14.6477 16.4857 14.1866C16.2259 13.5074 15.8679 12.8596 15.5086 12.2214C15.254 11.7692 14.9732 11.3308 14.6956 10.8976V10.8976L14.6956 10.8976L14.6954 10.8973L14.6952 10.8971C14.5747 10.709 14.4548 10.5218 14.338 10.3349L13.0672 10.8396C14.5894 8.90546 15.6248 6.80608 16.6532 4.72086C16.7718 4.48029 16.8903 4.23991 17.0095 4L17.0098 4.00064C17.6533 5.25285 18.2823 6.47732 18.9291 7.72549ZM17.7272 10.6424L18.2791 9.58482L17.0184 8.4877L15.7793 9.57161C16.3894 10.7074 16.8193 11.9316 16.9778 13.1999C17.2283 12.3603 17.4756 11.5317 17.7272 10.6424ZM16.9959 19.7182L16.996 19.718V19.7178C17.1247 21.0732 17.6409 22.286 18.2842 23.4478C18.5394 23.9086 18.8275 24.3522 19.1157 24.7959H19.1158C19.2627 25.0222 19.4097 25.2485 19.5524 25.4771C19.678 25.6784 19.8419 25.6232 20.0052 25.5536C20.0608 25.5298 20.1162 25.5058 20.1718 25.4817L20.1725 25.4814L20.1726 25.4813C20.3925 25.3858 20.6139 25.2896 20.8527 25.2136C19.4563 27.0073 18.47 29.0091 17.4621 31.0548L17.462 31.0549C17.3072 31.3691 17.1519 31.6843 16.9945 32C16.6693 31.391 16.3605 30.7757 16.0522 30.1613C15.1884 28.4403 14.3281 26.7263 13.1204 25.1762C13.1754 25.2015 13.2301 25.2272 13.2849 25.2529C13.409 25.3113 13.5333 25.3697 13.6599 25.4225C13.7966 25.4795 13.9357 25.5313 14.0806 25.5852L14.0809 25.5854C14.1455 25.6094 14.2113 25.6339 14.2785 25.6595C15.2293 24.2961 16.1134 22.888 16.6548 21.303C16.6689 21.2618 16.6763 21.2183 16.6844 21.1708C16.6924 21.1243 16.701 21.074 16.7172 21.018C16.8203 20.5782 16.9046 20.1654 16.9959 19.7182ZM16.2494 26.8139L17.0768 27.4027L18.2381 26.4283C17.574 25.2331 17.1478 23.9426 16.9732 22.5719C16.8444 23.9586 16.3522 25.2337 15.7449 26.4627C15.9119 26.592 16.0519 26.7005 16.2494 26.8139ZM18.4982 17.026L18.4997 17.0252C18.4986 17.0256 18.4982 17.026 18.4982 17.026ZM18.4997 17.0252C18.503 17.0239 18.5128 17.0224 18.5364 17.0304C18.5657 17.0431 18.5926 17.0588 18.6161 17.0725C18.6536 17.0944 18.6826 17.1113 18.6994 17.1035C20.0222 16.4913 21.444 16.4216 22.8629 16.352C22.9959 16.3455 23.1289 16.339 23.2617 16.332C23.5421 16.3173 23.8242 16.3403 24.1067 16.3633H24.1068C24.2926 16.3783 24.4785 16.3934 24.6641 16.3979C25.2153 16.411 25.2951 16.4866 25.3082 17.0374C25.3112 17.1655 25.3329 17.2931 25.3546 17.4207C25.3644 17.4791 25.3744 17.5374 25.3824 17.5958C26.2115 15.77 27.3402 14.1506 28.4776 12.5187C28.8203 12.0271 29.1637 11.5344 29.5 11.0346C29.0714 11.0599 28.6504 11.0882 28.2345 11.1162L28.2345 11.1162C27.3025 11.179 26.3964 11.24 25.4894 11.2609C24.5768 11.2819 23.6632 11.2624 22.7523 11.2429C22.3538 11.2344 21.9558 11.2259 21.5587 11.2208L22.5035 11.9063C22.4439 12.0189 22.3847 12.131 22.3257 12.2426C22.1991 12.4823 22.0735 12.72 21.9474 12.9576C21.2037 14.3591 20.3343 15.6726 19.0888 16.7129C18.9753 16.8079 18.8337 16.8713 18.692 16.9347C18.627 16.9639 18.562 16.993 18.4997 17.0252ZM25.5687 13.2634C25.5695 13.2603 25.5529 13.3189 25.5362 13.3776C25.3814 13.8915 25.2696 14.3602 25.1512 14.8564C23.8576 14.8937 22.5591 15.1299 21.4353 15.599L24.023 12.8008L25.5687 13.2634ZM18.4982 18.9008L18.4997 18.9016C18.4986 18.9012 18.4982 18.9008 18.4982 18.9008ZM18.4997 18.9016C18.503 18.9028 18.5128 18.9044 18.5364 18.8964C18.5657 18.8837 18.5926 18.868 18.6161 18.8542C18.6536 18.8324 18.6826 18.8155 18.6994 18.8233C20.0222 19.4355 21.444 19.5052 22.8629 19.5748C22.9959 19.5813 23.1289 19.5878 23.2617 19.5948C23.5421 19.6095 23.8243 19.5865 24.1067 19.5635H24.1068C24.2926 19.5485 24.4785 19.5333 24.6641 19.5289C25.2153 19.5158 25.2951 19.4402 25.3082 18.8893C25.3112 18.7613 25.3329 18.6337 25.3546 18.5061V18.506C25.3644 18.4477 25.3744 18.3894 25.3824 18.3311C26.2115 20.1568 27.3402 21.7762 28.4776 23.4081C28.8203 23.8997 29.1637 24.3924 29.5 24.8922C29.0714 24.867 28.6504 24.8386 28.2345 24.8105C27.3025 24.7478 26.3964 24.6868 25.4894 24.6659C24.5768 24.6449 23.6632 24.6644 22.7523 24.6839C22.3538 24.6924 21.9559 24.7009 21.5587 24.706L22.5035 24.0205C22.4439 23.9078 22.3847 23.7958 22.3257 23.6841L22.3256 23.6838L22.3253 23.6835L22.3239 23.6807C22.1978 23.4422 22.0728 23.2056 21.9474 22.9692C21.2037 21.5677 20.3343 20.2542 19.0888 19.2139C18.9753 19.119 18.8337 19.0555 18.692 18.9921C18.627 18.9629 18.562 18.9338 18.4997 18.9016ZM25.5362 22.5492C25.5529 22.6079 25.5695 22.6665 25.5687 22.6635L24.023 23.126L21.4353 20.3278C22.5591 20.7969 23.8576 21.0331 25.1512 21.0704C25.2696 21.5666 25.3814 22.0353 25.5362 22.5492ZM15.4301 16.9338C15.4332 16.9366 15.4363 16.9393 15.4395 16.942C15.4357 16.9386 15.4314 16.9329 15.4576 16.9347C15.836 17.1826 16.1862 17.4286 16.5487 17.6832V17.6833L16.4586 17.8493C16.2509 17.7865 16.0457 17.714 15.8413 17.6418C15.3795 17.4786 14.9225 17.3171 14.4535 17.2723C13.9434 17.2236 13.5198 17.4962 13.0893 17.7732C12.9172 17.884 12.744 17.9954 12.5638 18.0874C12.9401 18.344 13.3156 18.5439 13.6952 18.7364C14.2342 19.0095 14.7784 19.0023 15.3259 18.7546C15.3749 18.7324 15.4239 18.71 15.4729 18.6877C15.7116 18.5787 15.9507 18.4694 16.1974 18.3805C16.2656 18.356 16.3487 18.3703 16.4319 18.3847C16.4699 18.3913 16.5079 18.3978 16.5444 18.4007C16.4038 18.5855 16.2633 18.6907 16.13 18.7905C16.101 18.8122 16.0725 18.8336 16.0443 18.8556C15.9421 18.935 15.8332 19.0092 15.7242 19.0837C15.3275 19.3542 14.9286 19.6263 14.847 20.1529C14.775 20.617 14.752 21.0892 14.7291 21.5591L14.7264 21.6141C14.7132 21.8859 14.9021 21.8469 15.0604 21.7567C15.2377 21.6554 15.4105 21.5466 15.5833 21.4376C15.6986 21.365 15.814 21.2923 15.9307 21.2219C16.3826 20.9492 16.6464 20.5703 16.7006 20.0469C16.7325 19.7387 16.7806 19.4321 16.8286 19.1254C16.8498 18.9897 16.8711 18.854 16.891 18.7181H17.2132C17.056 20.2381 17.6598 21.3109 19.2272 21.7995C19.2319 21.7834 19.2398 21.7641 19.2485 21.7425C19.2712 21.6864 19.3001 21.6149 19.2976 21.5445C19.2822 21.0909 19.2531 20.6376 19.2206 20.1848C19.2172 20.1384 19.1942 20.0935 19.1711 20.0485C19.1596 20.026 19.1481 20.0035 19.1389 19.9807C18.9356 19.4737 18.5045 19.1935 18.0764 18.9154C17.9501 18.8333 17.8239 18.7514 17.704 18.6638C17.499 18.5141 17.4468 18.4368 17.5968 18.2773C17.8349 18.3493 18.0579 18.4581 18.2799 18.5665C18.6875 18.7655 19.0917 18.9627 19.5794 18.9268C20.2153 18.88 20.7235 18.5724 21.2804 18.2354C21.3634 18.1851 21.4476 18.1341 21.5333 18.0833C21.3832 18.0021 21.2426 17.9237 21.1079 17.8486C20.8188 17.6876 20.5567 17.5414 20.2849 17.4148C19.8697 17.2216 19.4223 17.1563 18.9794 17.3261C18.67 17.4447 18.366 17.5765 18.062 17.7084C17.9242 17.7682 17.7863 17.828 17.6478 17.8866C17.6357 17.8917 17.6228 17.8948 17.6093 17.898C17.6028 17.8996 17.5962 17.9011 17.5894 17.9029L17.4795 17.6692L17.4805 17.6685C17.8329 17.4446 18.1699 17.2305 18.5037 17.0196C18.5049 17.0199 18.507 17.0179 18.5085 17.0165C18.5068 17.0175 18.5053 17.0186 18.5037 17.0196C18.502 17.0191 18.502 17.0147 18.5072 16.9998C18.5865 16.8896 18.677 16.7854 18.7662 16.6829C18.9474 16.4745 19.1224 16.2732 19.184 16.0432C19.2792 15.6878 19.289 15.311 19.2996 14.907C19.3043 14.728 19.3091 14.5436 19.3215 14.3534C18.7439 14.5086 18.3122 14.8076 17.9306 15.1224C17.6574 15.3479 17.4444 15.7113 17.3475 16.0514C17.253 16.3825 17.224 16.7311 17.1949 17.0811C17.1824 17.2312 17.1698 17.3815 17.1521 17.5308H16.872C16.8617 17.4136 16.8537 17.2977 16.8457 17.1829C16.828 16.9273 16.8107 16.6772 16.7693 16.4309C16.7622 16.3881 16.7554 16.345 16.7485 16.3017C16.6857 15.9042 16.6217 15.4981 16.2405 15.2334C15.8775 14.9814 15.5116 14.7324 15.1368 14.4975C15.0792 14.4614 15.0015 14.4555 14.9238 14.4495C14.888 14.4468 14.8523 14.444 14.8185 14.4383C14.8153 14.4717 14.8114 14.5049 14.8076 14.5382C14.7988 14.6135 14.7901 14.6888 14.7885 14.7642C14.7873 14.8175 14.7913 14.8712 14.7952 14.9247C14.8006 14.9983 14.806 15.0717 14.7982 15.144C14.7237 15.8395 14.8842 16.4526 15.4295 16.9333L15.4307 16.9406C15.4301 16.946 15.4274 16.9549 15.4191 16.9687C15.3643 16.9242 15.3093 16.8797 15.2542 16.8351C14.7991 16.4669 14.3382 16.0941 13.9385 15.6672C12.9495 14.611 12.2754 13.3555 11.632 12.084C11.5436 11.9094 11.5509 11.83 11.7263 11.7232C11.9161 11.6076 12.0941 11.4738 12.2721 11.3401L12.2721 11.3401C12.3477 11.2834 12.4232 11.2266 12.4996 11.1713C10.3418 11.4174 8.21544 11.2587 6.06828 11.0985C5.54699 11.0596 5.02448 11.0207 4.5 10.9874C4.71895 11.3036 4.93936 11.6179 5.15952 11.9318L5.15967 11.932H5.15969C6.44377 13.7631 7.71898 15.5815 8.64273 17.6885L8.81705 16.4009C9.16973 16.4009 9.52035 16.3992 9.86953 16.3976H9.86962C10.6614 16.3939 11.4457 16.3902 12.2296 16.4058C13.359 16.428 14.4491 16.6503 15.4699 17.1773L15.4307 16.9406C15.4311 16.937 15.4305 16.9349 15.4301 16.9338ZM8.83723 14.8616L8.72011 14.2113C8.6475 13.8451 8.57538 13.5467 8.5047 13.2543C8.61817 13.2137 8.73229 13.1724 8.84702 13.1308L8.84724 13.1308C9.20666 13.0005 9.57206 12.8681 9.94244 12.7504C10.0134 12.7278 10.1688 12.8031 10.2125 12.8747C10.7199 13.707 11.397 14.3982 12.1136 15.057C12.1735 15.112 12.2354 15.165 12.2976 15.2183H12.2977H12.2977L12.2977 15.2184C12.4175 15.3209 12.5388 15.4246 12.6497 15.5467C11.4061 15.1191 10.1435 14.8338 8.83723 14.8616ZM15.4294 18.9941L15.4307 18.9862C15.4313 18.9922 15.4294 18.9941 15.4294 18.9941ZM15.4307 18.9862L15.4699 18.7495C14.4491 19.2765 13.359 19.4988 12.2296 19.5211C11.4457 19.5365 10.6614 19.5329 9.86962 19.5292H9.86953C9.52035 19.5276 9.16973 19.526 8.81705 19.526L8.64273 18.2383C7.71898 20.3453 6.44377 22.1637 5.15969 23.9948C4.93948 24.3088 4.71901 24.6231 4.5 24.9394C5.02449 24.9061 5.54701 24.8671 6.06831 24.8282C8.21545 24.6681 10.3418 24.5094 12.4996 24.7555C12.4232 24.7001 12.3477 24.6434 12.2721 24.5867C12.0941 24.453 11.9161 24.3193 11.7263 24.2036C11.5509 24.0968 11.5436 24.0174 11.632 23.8427C12.2754 22.5713 12.9495 21.3157 13.9385 20.2596C14.3382 19.8327 14.7991 19.4598 15.2542 19.0917C15.3093 19.0471 15.3643 19.0026 15.4191 18.9581C15.4274 18.972 15.4301 18.9808 15.4307 18.9862ZM8.72011 21.7155L8.83723 21.0652C10.1435 21.093 11.4061 20.8077 12.6497 20.3802C12.5388 20.5022 12.4175 20.6059 12.2977 20.7085H12.2977H12.2976C12.2354 20.7618 12.1735 20.8148 12.1136 20.8698C11.397 21.5287 10.7199 22.2199 10.2125 23.0521C10.1688 23.1237 10.0134 23.199 9.94244 23.1764C9.57204 23.0587 9.20663 22.9263 8.84721 22.7961H8.84718L8.84666 22.7959C8.73206 22.7543 8.61805 22.7131 8.5047 22.6725C8.57538 22.38 8.6475 22.0817 8.72011 21.7155Z" fill="#9FD6E3"/>
<g opacity="0.7" filter="url(#filter0_f_7_2174)">
<path fill-rule="evenodd" clip-rule="evenodd" d="M18.9291 7.72549C19.572 8.76264 20.1973 9.77612 20.818 10.7824L20.8191 10.7841L19.7521 10.3545C18.5587 11.9004 16.9794 14.698 17.0852 16.3529C17.0195 16.109 16.9615 15.8716 16.9048 15.6399V15.6398C16.78 15.1297 16.6621 14.6477 16.4857 14.1866C16.2259 13.5074 15.8679 12.8596 15.5086 12.2214C15.254 11.7692 14.9732 11.3308 14.6956 10.8976V10.8976L14.6956 10.8976L14.6954 10.8973L14.6952 10.8971C14.5747 10.709 14.4548 10.5218 14.338 10.3349L13.0672 10.8396C14.5894 8.90546 15.6248 6.80608 16.6532 4.72086C16.7718 4.48029 16.8903 4.23991 17.0095 4L17.0098 4.00064C17.6533 5.25285 18.2823 6.47732 18.9291 7.72549ZM17.7272 10.6424L18.2791 9.58482L17.0184 8.4877L15.7793 9.57161C16.3894 10.7074 16.8193 11.9316 16.9778 13.1999C17.2283 12.3603 17.4756 11.5317 17.7272 10.6424ZM16.9959 19.7182L16.996 19.718V19.7178C17.1247 21.0732 17.6409 22.286 18.2842 23.4478C18.5394 23.9086 18.8275 24.3522 19.1157 24.7959H19.1158C19.2627 25.0222 19.4097 25.2485 19.5524 25.4771C19.678 25.6784 19.8419 25.6232 20.0052 25.5536C20.0608 25.5298 20.1162 25.5058 20.1718 25.4817L20.1725 25.4814L20.1726 25.4813C20.3925 25.3858 20.6139 25.2896 20.8527 25.2136C19.4563 27.0073 18.47 29.0091 17.4621 31.0548L17.462 31.0549C17.3072 31.3691 17.1519 31.6843 16.9945 32C16.6693 31.391 16.3605 30.7757 16.0522 30.1613C15.1884 28.4403 14.3281 26.7263 13.1204 25.1762C13.1754 25.2015 13.2301 25.2272 13.2849 25.2529C13.409 25.3113 13.5333 25.3697 13.6599 25.4225C13.7966 25.4795 13.9357 25.5313 14.0806 25.5852L14.0809 25.5854C14.1455 25.6094 14.2113 25.6339 14.2785 25.6595C15.2293 24.2961 16.1134 22.888 16.6548 21.303C16.6689 21.2618 16.6763 21.2183 16.6844 21.1708C16.6924 21.1243 16.701 21.074 16.7172 21.018C16.8203 20.5782 16.9046 20.1654 16.9959 19.7182ZM16.2494 26.8139L17.0768 27.4027L18.2381 26.4283C17.574 25.2331 17.1478 23.9426 16.9732 22.5719C16.8444 23.9586 16.3522 25.2337 15.7449 26.4627C15.9119 26.592 16.0519 26.7005 16.2494 26.8139ZM18.4982 17.026L18.4997 17.0252C18.4986 17.0256 18.4982 17.026 18.4982 17.026ZM18.4997 17.0252C18.503 17.0239 18.5128 17.0224 18.5364 17.0304C18.5657 17.0431 18.5926 17.0588 18.6161 17.0725C18.6536 17.0944 18.6826 17.1113 18.6994 17.1035C20.0222 16.4913 21.444 16.4216 22.8629 16.352C22.9959 16.3455 23.1289 16.339 23.2617 16.332C23.5421 16.3173 23.8242 16.3403 24.1067 16.3633H24.1068C24.2926 16.3783 24.4785 16.3934 24.6641 16.3979C25.2153 16.411 25.2951 16.4866 25.3082 17.0374C25.3112 17.1655 25.3329 17.2931 25.3546 17.4207C25.3644 17.4791 25.3744 17.5374 25.3824 17.5958C26.2115 15.77 27.3402 14.1506 28.4776 12.5187C28.8203 12.0271 29.1637 11.5344 29.5 11.0346C29.0714 11.0599 28.6504 11.0882 28.2345 11.1162L28.2345 11.1162C27.3025 11.179 26.3964 11.24 25.4894 11.2609C24.5768 11.2819 23.6632 11.2624 22.7523 11.2429C22.3538 11.2344 21.9558 11.2259 21.5587 11.2208L22.5035 11.9063C22.4439 12.0189 22.3847 12.131 22.3257 12.2426C22.1991 12.4823 22.0735 12.72 21.9474 12.9576C21.2037 14.3591 20.3343 15.6726 19.0888 16.7129C18.9753 16.8079 18.8337 16.8713 18.692 16.9347C18.627 16.9639 18.562 16.993 18.4997 17.0252ZM25.5687 13.2634C25.5695 13.2603 25.5529 13.3189 25.5362 13.3776C25.3814 13.8915 25.2696 14.3602 25.1512 14.8564C23.8576 14.8937 22.5591 15.1299 21.4353 15.599L24.023 12.8008L25.5687 13.2634ZM18.4982 18.9008L18.4997 18.9016C18.4986 18.9012 18.4982 18.9008 18.4982 18.9008ZM18.4997 18.9016C18.503 18.9028 18.5128 18.9044 18.5364 18.8964C18.5657 18.8837 18.5926 18.868 18.6161 18.8542C18.6536 18.8324 18.6826 18.8155 18.6994 18.8233C20.0222 19.4355 21.444 19.5052 22.8629 19.5748C22.9959 19.5813 23.1289 19.5878 23.2617 19.5948C23.5421 19.6095 23.8243 19.5865 24.1067 19.5635H24.1068C24.2926 19.5485 24.4785 19.5333 24.6641 19.5289C25.2153 19.5158 25.2951 19.4402 25.3082 18.8893C25.3112 18.7613 25.3329 18.6337 25.3546 18.5061V18.506C25.3644 18.4477 25.3744 18.3894 25.3824 18.3311C26.2115 20.1568 27.3402 21.7762 28.4776 23.4081C28.8203 23.8997 29.1637 24.3924 29.5 24.8922C29.0714 24.867 28.6504 24.8386 28.2345 24.8105C27.3025 24.7478 26.3964 24.6868 25.4894 24.6659C24.5768 24.6449 23.6632 24.6644 22.7523 24.6839C22.3538 24.6924 21.9559 24.7009 21.5587 24.706L22.5035 24.0205C22.4439 23.9078 22.3847 23.7958 22.3257 23.6841L22.3256 23.6838L22.3253 23.6835L22.3239 23.6807C22.1978 23.4422 22.0728 23.2056 21.9474 22.9692C21.2037 21.5677 20.3343 20.2542 19.0888 19.2139C18.9753 19.119 18.8337 19.0555 18.692 18.9921C18.627 18.9629 18.562 18.9338 18.4997 18.9016ZM25.5362 22.5492C25.5529 22.6079 25.5695 22.6665 25.5687 22.6635L24.023 23.126L21.4353 20.3278C22.5591 20.7969 23.8576 21.0331 25.1512 21.0704C25.2696 21.5666 25.3814 22.0353 25.5362 22.5492ZM15.4301 16.9338C15.4332 16.9366 15.4363 16.9393 15.4395 16.942C15.4357 16.9386 15.4314 16.9329 15.4576 16.9347C15.836 17.1826 16.1862 17.4286 16.5487 17.6832V17.6833L16.4586 17.8493C16.2509 17.7865 16.0457 17.714 15.8413 17.6418C15.3795 17.4786 14.9225 17.3171 14.4535 17.2723C13.9434 17.2236 13.5198 17.4962 13.0893 17.7732C12.9172 17.884 12.744 17.9954 12.5638 18.0874C12.9401 18.344 13.3156 18.5439 13.6952 18.7364C14.2342 19.0095 14.7784 19.0023 15.3259 18.7546C15.3749 18.7324 15.4239 18.71 15.4729 18.6877C15.7116 18.5787 15.9507 18.4694 16.1974 18.3805C16.2656 18.356 16.3487 18.3703 16.4319 18.3847C16.4699 18.3913 16.5079 18.3978 16.5444 18.4007C16.4038 18.5855 16.2633 18.6907 16.13 18.7905C16.101 18.8122 16.0725 18.8336 16.0443 18.8556C15.9421 18.935 15.8332 19.0092 15.7242 19.0837C15.3275 19.3542 14.9286 19.6263 14.847 20.1529C14.775 20.617 14.752 21.0892 14.7291 21.5591L14.7264 21.6141C14.7132 21.8859 14.9021 21.8469 15.0604 21.7567C15.2377 21.6554 15.4105 21.5466 15.5833 21.4376C15.6986 21.365 15.814 21.2923 15.9307 21.2219C16.3826 20.9492 16.6464 20.5703 16.7006 20.0469C16.7325 19.7387 16.7806 19.4321 16.8286 19.1254C16.8498 18.9897 16.8711 18.854 16.891 18.7181H17.2132C17.056 20.2381 17.6598 21.3109 19.2272 21.7995C19.2319 21.7834 19.2398 21.7641 19.2485 21.7425C19.2712 21.6864 19.3001 21.6149 19.2976 21.5445C19.2822 21.0909 19.2531 20.6376 19.2206 20.1848C19.2172 20.1384 19.1942 20.0935 19.1711 20.0485C19.1596 20.026 19.1481 20.0035 19.1389 19.9807C18.9356 19.4737 18.5045 19.1935 18.0764 18.9154C17.9501 18.8333 17.8239 18.7514 17.704 18.6638C17.499 18.5141 17.4468 18.4368 17.5968 18.2773C17.8349 18.3493 18.0579 18.4581 18.2799 18.5665C18.6875 18.7655 19.0917 18.9627 19.5794 18.9268C20.2153 18.88 20.7235 18.5724 21.2804 18.2354C21.3634 18.1851 21.4476 18.1341 21.5333 18.0833C21.3832 18.0021 21.2426 17.9237 21.1079 17.8486C20.8188 17.6876 20.5567 17.5414 20.2849 17.4148C19.8697 17.2216 19.4223 17.1563 18.9794 17.3261C18.67 17.4447 18.366 17.5765 18.062 17.7084C17.9242 17.7682 17.7863 17.828 17.6478 17.8866C17.6357 17.8917 17.6228 17.8948 17.6093 17.898C17.6028 17.8996 17.5962 17.9011 17.5894 17.9029L17.4795 17.6692L17.4805 17.6685C17.8329 17.4446 18.1699 17.2305 18.5037 17.0196C18.5049 17.0199 18.507 17.0179 18.5085 17.0165C18.5068 17.0175 18.5053 17.0186 18.5037 17.0196C18.502 17.0191 18.502 17.0147 18.5072 16.9998C18.5865 16.8896 18.677 16.7854 18.7662 16.6829C18.9474 16.4745 19.1224 16.2732 19.184 16.0432C19.2792 15.6878 19.289 15.311 19.2996 14.907C19.3043 14.728 19.3091 14.5436 19.3215 14.3534C18.7439 14.5086 18.3122 14.8076 17.9306 15.1224C17.6574 15.3479 17.4444 15.7113 17.3475 16.0514C17.253 16.3825 17.224 16.7311 17.1949 17.0811C17.1824 17.2312 17.1698 17.3815 17.1521 17.5308H16.872C16.8617 17.4136 16.8537 17.2977 16.8457 17.1829C16.828 16.9273 16.8107 16.6772 16.7693 16.4309C16.7622 16.3881 16.7554 16.345 16.7485 16.3017C16.6857 15.9042 16.6217 15.4981 16.2405 15.2334C15.8775 14.9814 15.5116 14.7324 15.1368 14.4975C15.0792 14.4614 15.0015 14.4555 14.9238 14.4495C14.888 14.4468 14.8523 14.444 14.8185 14.4383C14.8153 14.4717 14.8114 14.5049 14.8076 14.5382C14.7988 14.6135 14.7901 14.6888 14.7885 14.7642C14.7873 14.8175 14.7913 14.8712 14.7952 14.9247C14.8006 14.9983 14.806 15.0717 14.7982 15.144C14.7237 15.8395 14.8842 16.4526 15.4295 16.9333L15.4307 16.9406C15.4301 16.946 15.4274 16.9549 15.4191 16.9687C15.3643 16.9242 15.3093 16.8797 15.2542 16.8351C14.7991 16.4669 14.3382 16.0941 13.9385 15.6672C12.9495 14.611 12.2754 13.3555 11.632 12.084C11.5436 11.9094 11.5509 11.83 11.7263 11.7232C11.9161 11.6076 12.0941 11.4738 12.2721 11.3401L12.2721 11.3401C12.3477 11.2834 12.4232 11.2266 12.4996 11.1713C10.3418 11.4174 8.21544 11.2587 6.06828 11.0985C5.54699 11.0596 5.02448 11.0207 4.5 10.9874C4.71895 11.3036 4.93936 11.6179 5.15952 11.9318L5.15967 11.932H5.15969C6.44377 13.7631 7.71898 15.5815 8.64273 17.6885L8.81705 16.4009C9.16973 16.4009 9.52035 16.3992 9.86953 16.3976H9.86962C10.6614 16.3939 11.4457 16.3902 12.2296 16.4058C13.359 16.428 14.4491 16.6503 15.4699 17.1773L15.4307 16.9406C15.4311 16.937 15.4305 16.9349 15.4301 16.9338ZM8.83723 14.8616L8.72011 14.2113C8.6475 13.8451 8.57538 13.5467 8.5047 13.2543C8.61817 13.2137 8.73229 13.1724 8.84702 13.1308L8.84724 13.1308C9.20665 13.0005 9.57206 12.8681 9.94244 12.7504C10.0134 12.7278 10.1688 12.8031 10.2125 12.8747C10.7199 13.707 11.397 14.3982 12.1136 15.057C12.1735 15.112 12.2354 15.165 12.2976 15.2183H12.2977H12.2977L12.2977 15.2184C12.4175 15.3209 12.5388 15.4246 12.6497 15.5467C11.4061 15.1191 10.1435 14.8338 8.83723 14.8616ZM15.4294 18.9941L15.4307 18.9862C15.4313 18.9922 15.4294 18.9941 15.4294 18.9941ZM15.4307 18.9862L15.4699 18.7495C14.4491 19.2765 13.359 19.4988 12.2296 19.5211C11.4457 19.5365 10.6614 19.5329 9.86962 19.5292H9.86953C9.52035 19.5276 9.16973 19.526 8.81705 19.526L8.64273 18.2383C7.71898 20.3453 6.44377 22.1637 5.15969 23.9948C4.93948 24.3088 4.71901 24.6231 4.5 24.9394C5.02449 24.9061 5.54701 24.8671 6.06831 24.8282C8.21545 24.6681 10.3418 24.5094 12.4996 24.7555C12.4232 24.7001 12.3477 24.6434 12.2721 24.5867C12.0941 24.453 11.9161 24.3193 11.7263 24.2036C11.5509 24.0968 11.5436 24.0174 11.632 23.8427C12.2754 22.5713 12.9495 21.3157 13.9385 20.2596C14.3382 19.8327 14.7991 19.4598 15.2542 19.0917C15.3093 19.0471 15.3643 19.0026 15.4191 18.9581C15.4274 18.972 15.4301 18.9808 15.4307 18.9862ZM8.72011 21.7155L8.83723 21.0652C10.1435 21.093 11.4061 20.8077 12.6497 20.3802C12.5388 20.5022 12.4175 20.6059 12.2977 20.7085H12.2977H12.2976C12.2354 20.7618 12.1735 20.8148 12.1136 20.8698C11.397 21.5287 10.7199 22.2199 10.2125 23.0521C10.1688 23.1237 10.0134 23.199 9.94244 23.1764C9.57204 23.0587 9.20663 22.9263 8.84721 22.7961H8.84718L8.84666 22.7959C8.73206 22.7543 8.61805 22.7131 8.5047 22.6725C8.57538 22.38 8.6475 22.0817 8.72011 21.7155Z" fill="#9FD6E3"/>
</g>
<defs>
<filter id="filter0_f_7_2174" x="0.5" y="0" width="33" height="36" filterUnits="userSpaceOnUse" color-interpolation-filters="sRGB">
<feFlood flood-opacity="0" result="BackgroundImageFix"/>
<feBlend mode="normal" in="SourceGraphic" in2="BackgroundImageFix" result="shape"/>
<feGaussianBlur stdDeviation="2" result="effect1_foregroundBlur_7_2174"/>
</filter>
</defs>
</svg>
