<svg width="38" height="36" viewBox="0 0 38 36" fill="none" xmlns="http://www.w3.org/2000/svg">
<path fill-rule="evenodd" clip-rule="evenodd" d="M18.0466 5.50489C18.3593 5.00895 18.655 4.53817 18.993 4C19.1976 4.34335 19.4045 4.67892 19.6092 5.01106L19.6092 5.01109V5.01112C20.075 5.76682 20.5298 6.50471 20.9226 7.2758C21.3959 8.20492 21.1505 9.13979 20.5369 9.93976C20.2068 10.3701 19.8479 10.7773 19.479 11.1958V11.1958C19.3122 11.3851 19.1433 11.5767 18.9741 11.7738C18.8449 11.6213 18.7137 11.4712 18.5829 11.3216L18.5828 11.3216C18.2812 10.9765 17.9814 10.6337 17.7123 10.2673C17.4017 9.84465 17.0939 9.39146 16.9152 8.90186C16.6146 8.07843 16.9198 7.32039 17.3557 6.61575C17.5799 6.25353 17.8049 5.89193 18.0466 5.50489ZM28.4786 12.7304C30.1273 14.6679 30.552 16.9485 30.2528 19.4886C30.3463 19.4236 30.4358 19.3602 30.5229 19.2986L30.5239 19.2979L30.5251 19.2971C30.7147 19.1629 30.893 19.0367 31.0765 18.9191C31.4446 18.6833 31.8481 18.693 32.2001 18.9059C32.5134 19.0953 32.807 19.3188 33.1055 19.5458C33.2354 19.6446 33.3662 19.7442 33.5 19.8419L33.4994 19.8423C31.9128 21.0204 31.6287 21.2314 30.2132 19.8508C29.969 20.8912 29.6364 21.8802 29.0555 22.763C28.1576 24.1275 26.9832 25.1678 25.5675 25.9389C25.3449 26.0602 25.1217 26.1806 24.8984 26.3011L24.8976 26.3016C23.9355 26.8209 22.9725 27.3406 22.0506 27.927C21.0433 28.5678 20.0872 29.3139 19.4945 30.4145C19.3631 30.6586 19.2738 30.9266 19.1846 31.1944C19.1474 31.3062 19.1101 31.4179 19.0699 31.5279C19.0421 31.6038 19.0192 31.6816 18.9875 31.7894C18.9699 31.8489 18.9497 31.9175 18.9245 32C18.9106 31.0217 18.5105 30.3412 17.9787 29.7216C16.9358 28.5066 15.6345 27.6453 14.2427 26.9297C14.1519 26.8829 14.0609 26.8363 13.9699 26.7897C12.6109 26.0933 11.2494 25.3956 10.1439 24.3095C8.91412 23.1014 8.06677 21.6422 7.77545 19.853C7.71065 19.9065 7.64524 19.9585 7.58021 20.0101C7.43865 20.1225 7.29879 20.2336 7.17046 20.3573C6.67664 20.8331 6.11505 20.9257 5.52348 20.5852C5.28408 20.4475 5.05554 20.2896 4.82719 20.1319C4.76231 20.0871 4.69745 20.0423 4.63235 19.998C4.59645 19.9735 4.56836 19.9371 4.54012 19.9005L4.54011 19.9004H4.54011H4.5401H4.5401H4.5401C4.52703 19.8835 4.51392 19.8664 4.5 19.8506C6.14867 18.4603 6.24177 18.5204 7.37379 19.2511L7.37403 19.2512C7.47099 19.3138 7.57556 19.3813 7.68939 19.4533C7.62206 18.2674 7.56886 17.0874 7.85761 15.9135C8.14438 14.7478 8.65894 13.7128 9.48879 12.7238C9.34827 12.7374 9.21742 12.7442 9.09416 12.7507H9.09412C8.84654 12.7637 8.62957 12.7751 8.42632 12.8352C7.41709 13.1337 6.24241 12.5336 6.01927 11.4103C5.94094 11.0161 5.82228 10.6302 5.70718 10.256L5.70717 10.256L5.70717 10.256L5.70716 10.256C5.65618 10.0902 5.60589 9.92671 5.56013 9.76578C5.75816 9.76578 5.95402 9.76269 6.14827 9.75962H6.14833H6.14839H6.14844H6.14851H6.14856H6.14858C6.57466 9.7529 6.99297 9.7463 7.4093 9.77267C8.50054 9.84179 9.02984 10.2176 9.31002 11.2395C9.39125 11.5358 9.41258 11.8493 9.43491 12.1774C9.44535 12.3309 9.45603 12.4877 9.47315 12.6473C9.5952 12.5485 9.71224 12.4525 9.82626 12.359L9.82643 12.3589L9.82648 12.3588H9.82652L9.82658 12.3587H9.82662H9.82664C10.066 12.1624 10.2921 11.977 10.5234 11.7988C11.7787 10.8317 13.1811 10.3043 14.7628 10.434C15.8908 10.5264 16.8886 10.9877 17.749 11.7508C17.8051 11.8006 17.8675 11.8478 17.9301 11.8951L17.9302 11.8951C18.1739 12.0793 18.4223 12.2671 18.3293 12.6301C18.2403 12.978 18.0305 13.3028 17.8227 13.5999C17.7878 13.6498 17.4361 13.5608 17.3225 13.4431C16.8049 12.9061 16.2546 12.424 15.5368 12.2083C13.7853 11.682 12.2742 12.2104 10.9279 13.3712C10.0258 14.149 9.49716 15.17 9.26035 16.3352C9.01738 17.5306 9.1723 18.7167 9.58652 19.8464C10.4168 22.1106 11.9219 23.7287 14.1372 24.6108C15.6505 25.2133 17.0651 25.9721 18.1799 27.2146C18.382 27.4398 18.5594 27.6885 18.7274 27.9241C18.8017 28.0283 18.8743 28.1301 18.9463 28.2261C19.069 28.0861 19.1933 27.941 19.3199 27.7931C19.6086 27.456 19.9089 27.1054 20.2275 26.7732C21.0252 25.9415 21.9986 25.3629 23.0484 24.9532C24.5393 24.3713 25.8987 23.6074 26.9478 22.3485C27.7978 21.3285 28.3571 20.1566 28.6467 18.8469C28.9263 17.5824 28.8188 16.3556 28.3223 15.1664C27.8056 13.929 26.929 13.0216 25.7334 12.511C25.0807 12.2324 24.3494 12.0509 23.6452 12.0184C22.6302 11.9715 21.7092 12.3514 20.9804 13.1243C20.878 13.2329 20.7749 13.3409 20.6698 13.4469C20.3731 13.746 20.2171 13.7321 19.9869 13.3886C19.9714 13.3654 19.9553 13.3428 19.9391 13.3201V13.32H19.939V13.3199H19.939C19.9165 13.2882 19.8941 13.2567 19.8733 13.2239C19.4352 12.5318 19.4662 12.3178 20.0975 11.8083C21.2642 10.8666 22.5606 10.3 24.0772 10.4285C25.3266 10.5343 26.4377 11.0293 27.4329 11.7907C27.6584 11.9631 27.8642 12.1624 28.074 12.3656C28.1999 12.4874 28.3272 12.6106 28.461 12.7303C28.4845 12.7361 28.4786 12.7304 28.4786 12.7304ZM15.9362 15.4569C14.5947 15.5882 14.0415 16.2979 13.929 17.6312C13.8313 18.791 14.3791 19.7543 15.0611 20.6048C15.4929 21.1433 15.9758 21.6389 16.4586 22.1343C16.65 22.3307 16.8413 22.5271 17.0295 22.7261C17.1051 22.8061 17.1908 22.8763 17.2763 22.9465L17.2764 22.9466C17.3159 22.979 17.3555 23.0114 17.394 23.0448L17.3193 23.1512C17.1888 23.0814 17.056 23.0149 16.9233 22.9485C16.6306 22.8017 16.3377 22.655 16.0683 22.4722C15.7262 22.2401 15.3923 21.9946 15.0585 21.7492V21.7491H15.0584C14.582 21.399 14.1059 21.049 13.6064 20.738C13.3108 20.5539 12.9104 20.5198 12.5393 20.4882H12.5393H12.5389C12.5013 20.485 12.4639 20.4818 12.427 20.4785C11.8262 20.4246 11.3053 20.6751 10.8236 21.1024C11.0408 20.36 11.7856 19.7965 12.5097 19.7368C12.4173 19.5516 12.3179 19.3663 12.2176 19.1793L12.2176 19.1792H12.2176H12.2176H12.2176L12.2176 19.1791C11.9923 18.7591 11.7628 18.331 11.5981 17.878C11.1658 16.6883 11.6481 15.3609 12.5472 14.6982C13.5617 13.9505 14.622 13.9067 15.7618 14.598C16.1805 14.852 16.5424 15.2041 16.8789 15.5915C16.5766 15.5466 16.2744 15.5017 15.9362 15.4569ZM25.4036 20.4226C25.9643 20.4459 26.5216 20.5709 26.9802 20.9554C26.9906 20.9451 27.0009 20.9349 27.0238 20.8802C26.7008 20.1331 26.094 19.8429 25.3663 19.7052C25.4 19.6586 25.4323 19.6137 25.4638 19.5698L25.4649 19.5682L25.465 19.5679C25.5314 19.4755 25.5941 19.388 25.6586 19.3021C26.289 18.463 26.6576 17.5089 26.4539 16.4646C26.104 14.6713 24.5624 13.863 23.1023 14.2213C22.2758 14.4242 21.6191 14.9015 21.0056 15.6096C21.0914 15.5979 21.166 15.5892 21.233 15.5815C21.3581 15.567 21.457 15.5554 21.5534 15.5328C23.3395 15.1138 24.2047 16.8036 24.038 18.1016C23.8788 19.3409 23.2008 20.349 22.3851 21.2477C22.0109 21.6601 21.62 22.0565 21.2292 22.4531V22.4532L21.2289 22.4534C21.054 22.6308 20.8792 22.8083 20.7057 22.9871C20.7157 22.9978 20.7256 23.0084 20.7798 23.0318C22.0051 22.4724 23.1033 21.7664 24.0999 20.899C24.4782 20.5699 24.9301 20.403 25.4036 20.4226ZM28.4872 12.7392L28.4879 12.7332C28.4915 12.7321 28.4993 12.7316 28.5147 12.7324C28.74 12.7601 28.954 12.7876 29.1629 12.8144L29.1634 12.8145C29.3258 12.8354 29.4852 12.8559 29.6447 12.8758C30.2817 12.9552 30.8584 12.8857 31.3677 12.3956C31.7822 11.9965 31.9161 11.4901 32.0505 10.9823V10.9822V10.9822C32.0921 10.8247 32.1338 10.667 32.1839 10.5124C32.2381 10.3453 32.2775 10.1731 32.3195 9.98941V9.98929L32.3196 9.98911L32.3196 9.98869C32.3395 9.90156 32.36 9.81185 32.3831 9.71886C32.1384 9.73274 31.9002 9.74699 31.6665 9.76098L31.6659 9.76101L31.6656 9.76103C31.1296 9.7931 30.6172 9.82376 30.1044 9.84537C29.6143 9.86601 29.2498 10.1228 28.9779 10.4972C28.6103 11.0031 28.572 11.5942 28.5339 12.1834C28.5219 12.3678 28.51 12.552 28.4879 12.7332C28.4832 12.7347 28.4854 12.7372 28.487 12.7389L28.4872 12.7392ZM27.0272 20.9095C27.0595 20.9408 27.076 20.9871 27.0925 21.0336C27.0652 21.0195 27.038 21.0055 26.9954 20.9734C26.9906 20.9451 27.0009 20.9349 27.0272 20.9095ZM20.6287 23.1025C20.6742 23.0855 20.7197 23.0685 20.7504 23.0353C20.7257 23.0084 20.7157 22.9978 20.688 23.0027C20.6565 23.0465 20.6426 23.0744 20.6287 23.1025Z" fill="#A5C83B"/>
<g opacity="0.7" filter="url(#filter0_f_7_2176)">
<path fill-rule="evenodd" clip-rule="evenodd" d="M18.0466 5.50489C18.3593 5.00895 18.655 4.53817 18.993 4C19.1976 4.34335 19.4045 4.67892 19.6092 5.01106L19.6092 5.01109V5.01112C20.075 5.76682 20.5298 6.50471 20.9226 7.2758C21.3959 8.20492 21.1505 9.13979 20.5369 9.93976C20.2068 10.3701 19.8479 10.7773 19.479 11.1958V11.1958C19.3122 11.3851 19.1433 11.5767 18.9741 11.7738C18.8449 11.6213 18.7137 11.4712 18.5829 11.3216L18.5828 11.3216C18.2812 10.9765 17.9814 10.6337 17.7123 10.2673C17.4017 9.84465 17.0939 9.39146 16.9152 8.90186C16.6146 8.07843 16.9198 7.32039 17.3557 6.61575C17.5799 6.25353 17.8049 5.89193 18.0466 5.50489ZM28.4786 12.7304C30.1273 14.6679 30.552 16.9485 30.2528 19.4886C30.3463 19.4236 30.4358 19.3602 30.5229 19.2986L30.5239 19.2979L30.5251 19.2971C30.7147 19.1629 30.893 19.0367 31.0765 18.9191C31.4446 18.6833 31.8481 18.693 32.2001 18.9059C32.5134 19.0953 32.807 19.3188 33.1055 19.5458C33.2354 19.6446 33.3662 19.7442 33.5 19.8419L33.4994 19.8423C31.9128 21.0204 31.6287 21.2314 30.2132 19.8508C29.969 20.8912 29.6364 21.8802 29.0555 22.763C28.1576 24.1275 26.9832 25.1678 25.5675 25.9389C25.3449 26.0602 25.1217 26.1806 24.8984 26.3011L24.8976 26.3016C23.9355 26.8209 22.9725 27.3406 22.0506 27.927C21.0433 28.5678 20.0872 29.3139 19.4945 30.4145C19.3631 30.6586 19.2738 30.9266 19.1846 31.1944C19.1474 31.3062 19.1101 31.4179 19.0699 31.5279C19.0421 31.6038 19.0192 31.6816 18.9875 31.7893C18.9699 31.8489 18.9497 31.9175 18.9245 32C18.9106 31.0217 18.5105 30.3412 17.9787 29.7216C16.9358 28.5066 15.6345 27.6453 14.2427 26.9297C14.1519 26.8829 14.0609 26.8363 13.9699 26.7897C12.6109 26.0933 11.2494 25.3956 10.1439 24.3095C8.91412 23.1014 8.06677 21.6422 7.77545 19.853C7.71065 19.9065 7.64524 19.9585 7.58021 20.0101C7.43865 20.1225 7.29879 20.2336 7.17046 20.3573C6.67664 20.8331 6.11505 20.9257 5.52348 20.5852C5.28408 20.4475 5.05554 20.2896 4.82719 20.1319C4.76231 20.0871 4.69745 20.0423 4.63235 19.998C4.59645 19.9735 4.56836 19.9371 4.54012 19.9005L4.54011 19.9004H4.54011H4.5401H4.5401H4.5401C4.52703 19.8835 4.51392 19.8664 4.5 19.8506C6.14867 18.4603 6.24177 18.5204 7.37379 19.2511L7.37403 19.2512C7.47099 19.3138 7.57556 19.3813 7.68939 19.4533C7.62206 18.2674 7.56886 17.0874 7.85761 15.9135C8.14438 14.7478 8.65894 13.7128 9.48879 12.7238C9.34827 12.7374 9.21742 12.7442 9.09416 12.7507H9.09412C8.84654 12.7637 8.62957 12.7751 8.42632 12.8352C7.41709 13.1337 6.24241 12.5336 6.01927 11.4103C5.94094 11.0161 5.82228 10.6302 5.70718 10.256L5.70717 10.256L5.70717 10.256L5.70716 10.256C5.65618 10.0902 5.60589 9.92671 5.56013 9.76578C5.75816 9.76578 5.95402 9.76269 6.14827 9.75962H6.14833H6.14839H6.14844H6.14851H6.14856H6.14858C6.57466 9.7529 6.99297 9.7463 7.4093 9.77267C8.50054 9.84179 9.02984 10.2176 9.31002 11.2395C9.39125 11.5358 9.41258 11.8493 9.43491 12.1774C9.44535 12.3309 9.45603 12.4877 9.47315 12.6473C9.5952 12.5485 9.71224 12.4525 9.82626 12.359L9.82643 12.3589L9.82648 12.3588H9.82652L9.82658 12.3587H9.82662H9.82664C10.066 12.1624 10.2921 11.977 10.5234 11.7988C11.7787 10.8317 13.1811 10.3043 14.7628 10.434C15.8908 10.5264 16.8886 10.9877 17.7489 11.7508C17.8051 11.8006 17.8675 11.8478 17.9301 11.8951L17.9302 11.8951C18.1739 12.0793 18.4223 12.2671 18.3293 12.6301C18.2403 12.978 18.0305 13.3028 17.8227 13.5999C17.7878 13.6498 17.4361 13.5608 17.3225 13.4431C16.8049 12.9061 16.2546 12.424 15.5368 12.2083C13.7853 11.682 12.2742 12.2104 10.9279 13.3712C10.0258 14.149 9.49716 15.17 9.26035 16.3352C9.01738 17.5306 9.1723 18.7167 9.58652 19.8464C10.4168 22.1106 11.9219 23.7287 14.1372 24.6108C15.6505 25.2133 17.0651 25.9721 18.1799 27.2146C18.382 27.4398 18.5593 27.6885 18.7274 27.9241C18.8017 28.0283 18.8743 28.1301 18.9463 28.2261C19.069 28.0861 19.1933 27.941 19.3199 27.7931C19.6086 27.456 19.9089 27.1054 20.2275 26.7732C21.0252 25.9415 21.9986 25.3629 23.0484 24.9532C24.5393 24.3713 25.8987 23.6074 26.9478 22.3485C27.7978 21.3285 28.3571 20.1566 28.6467 18.8469C28.9263 17.5824 28.8188 16.3556 28.3223 15.1664C27.8056 13.929 26.929 13.0216 25.7334 12.511C25.0807 12.2324 24.3494 12.0509 23.6452 12.0184C22.6302 11.9715 21.7092 12.3514 20.9804 13.1243C20.878 13.2329 20.7749 13.3409 20.6698 13.4469C20.3731 13.746 20.2171 13.7321 19.9869 13.3886C19.9714 13.3654 19.9553 13.3428 19.9391 13.3201V13.32H19.939V13.3199H19.939C19.9165 13.2882 19.8941 13.2567 19.8733 13.2239C19.4352 12.5318 19.4662 12.3178 20.0975 11.8083C21.2642 10.8666 22.5606 10.3 24.0772 10.4285C25.3266 10.5343 26.4377 11.0293 27.4329 11.7907C27.6584 11.9631 27.8642 12.1624 28.074 12.3656C28.1999 12.4874 28.3272 12.6106 28.461 12.7303C28.4845 12.7361 28.4786 12.7304 28.4786 12.7304ZM15.9362 15.4569C14.5947 15.5882 14.0415 16.2979 13.929 17.6312C13.8313 18.791 14.3791 19.7543 15.0611 20.6048C15.4929 21.1433 15.9758 21.6389 16.4586 22.1343C16.65 22.3307 16.8413 22.5271 17.0295 22.7261C17.1051 22.8061 17.1908 22.8763 17.2763 22.9465L17.2764 22.9466C17.3159 22.979 17.3555 23.0114 17.394 23.0448L17.3193 23.1512C17.1888 23.0814 17.056 23.0149 16.9233 22.9485C16.6306 22.8017 16.3377 22.655 16.0683 22.4722C15.7262 22.2401 15.3923 21.9946 15.0585 21.7492V21.7491H15.0584C14.582 21.399 14.1059 21.049 13.6064 20.738C13.3108 20.5539 12.9104 20.5198 12.5393 20.4882H12.5393H12.5389C12.5013 20.485 12.4639 20.4818 12.427 20.4785C11.8262 20.4246 11.3053 20.6751 10.8236 21.1024C11.0408 20.36 11.7856 19.7965 12.5097 19.7368C12.4173 19.5516 12.3179 19.3663 12.2176 19.1793L12.2176 19.1792H12.2176H12.2176H12.2176L12.2176 19.1791C11.9923 18.7591 11.7628 18.331 11.5981 17.878C11.1658 16.6883 11.6481 15.3609 12.5472 14.6982C13.5617 13.9505 14.622 13.9067 15.7618 14.598C16.1805 14.852 16.5424 15.2041 16.8789 15.5915C16.5766 15.5466 16.2744 15.5017 15.9362 15.4569ZM25.4036 20.4226C25.9643 20.4459 26.5216 20.5709 26.9802 20.9554C26.9906 20.9451 27.0009 20.9349 27.0238 20.8802C26.7008 20.1331 26.094 19.8429 25.3663 19.7052C25.4 19.6586 25.4323 19.6137 25.4638 19.5698L25.4649 19.5682L25.465 19.5679C25.5314 19.4755 25.5941 19.388 25.6586 19.3021C26.289 18.463 26.6576 17.5089 26.4539 16.4646C26.104 14.6713 24.5624 13.863 23.1023 14.2213C22.2758 14.4242 21.6191 14.9015 21.0056 15.6096C21.0914 15.5979 21.166 15.5892 21.233 15.5815C21.3581 15.567 21.457 15.5554 21.5534 15.5328C23.3395 15.1138 24.2047 16.8036 24.038 18.1016C23.8788 19.3409 23.2008 20.349 22.3851 21.2477C22.0109 21.6601 21.62 22.0565 21.2292 22.4531V22.4532L21.2289 22.4534C21.054 22.6308 20.8792 22.8083 20.7057 22.9871C20.7157 22.9978 20.7256 23.0084 20.7798 23.0318C22.0051 22.4724 23.1033 21.7664 24.0999 20.899C24.4782 20.5699 24.9301 20.403 25.4036 20.4226ZM28.4872 12.7392L28.4879 12.7332C28.4915 12.7321 28.4993 12.7316 28.5147 12.7324C28.74 12.7601 28.954 12.7876 29.1629 12.8144L29.1634 12.8145C29.3258 12.8354 29.4852 12.8559 29.6447 12.8758C30.2817 12.9552 30.8584 12.8857 31.3677 12.3956C31.7822 11.9965 31.9161 11.4901 32.0505 10.9823V10.9822V10.9822C32.0921 10.8247 32.1338 10.667 32.1839 10.5124C32.2381 10.3453 32.2775 10.1731 32.3195 9.98941V9.98929L32.3196 9.98911L32.3196 9.98869C32.3395 9.90156 32.36 9.81185 32.3831 9.71886C32.1384 9.73274 31.9002 9.74699 31.6665 9.76098L31.6659 9.76101L31.6656 9.76103C31.1296 9.7931 30.6172 9.82376 30.1044 9.84537C29.6143 9.86601 29.2498 10.1228 28.9779 10.4972C28.6103 11.0031 28.572 11.5942 28.5339 12.1834C28.5219 12.3678 28.51 12.552 28.4879 12.7332C28.4832 12.7347 28.4854 12.7372 28.487 12.7389L28.4872 12.7392ZM27.0272 20.9095C27.0595 20.9408 27.076 20.9871 27.0925 21.0336C27.0652 21.0195 27.038 21.0055 26.9954 20.9734C26.9906 20.9451 27.0009 20.9349 27.0272 20.9095ZM20.6287 23.1025C20.6742 23.0855 20.7197 23.0685 20.7504 23.0353C20.7257 23.0084 20.7157 22.9978 20.688 23.0027C20.6565 23.0465 20.6426 23.0744 20.6287 23.1025Z" fill="#A5C83B"/>
</g>
<defs>
<filter id="filter0_f_7_2176" x="0.5" y="0" width="37" height="36" filterUnits="userSpaceOnUse" color-interpolation-filters="sRGB">
<feFlood flood-opacity="0" result="BackgroundImageFix"/>
<feBlend mode="normal" in="SourceGraphic" in2="BackgroundImageFix" result="shape"/>
<feGaussianBlur stdDeviation="2" result="effect1_foregroundBlur_7_2176"/>
</filter>
</defs>
</svg>
