<svg width="34" height="36" viewBox="0 0 34 36" fill="none" xmlns="http://www.w3.org/2000/svg">
<path fill-rule="evenodd" clip-rule="evenodd" d="M17.114 28.9489C15.7219 30.2247 13.8906 31 11.8853 31C7.53313 31 4 27.348 4 22.8497C4 19.5565 5.89366 16.7168 8.6162 15.4318C8.78237 15.3533 8.95163 15.2808 9.12371 15.2142C9.98324 14.8815 10.9139 14.6995 11.8853 14.6995C12.4966 14.6995 13.0916 14.7715 13.6629 14.9078C13.8701 14.9572 14.074 15.015 14.2747 15.081C15.3359 15.4298 16.3 16.0046 17.114 16.7506C17.2101 16.8388 17.304 16.9293 17.396 17.0222C17.4308 17.0574 17.4654 17.0929 17.4994 17.1287C17.6142 17.2487 17.725 17.3725 17.8324 17.4996C18.8268 18.6794 19.4986 20.1573 19.7041 21.7858C19.7277 21.9724 19.7451 22.1607 19.7564 22.351C19.7603 22.4179 19.7634 22.4853 19.7659 22.5527C19.7578 22.6506 19.7536 22.7497 19.7536 22.8497C19.7536 22.9496 19.7578 23.0488 19.7659 23.1467C19.8053 23.6297 19.9408 24.0848 20.1526 24.4913C20.7196 25.5811 21.8337 26.3224 23.1135 26.3224C24.969 26.3224 26.4732 24.7665 26.4732 22.8497C26.4732 21.1177 25.2445 19.6801 23.6387 19.4192C24.5585 18.174 25.1602 16.6653 25.3176 15.0227C28.5988 16.0093 31 19.1421 31 22.8497C31 27.348 27.4657 31 23.1135 31C21.1085 31 19.2773 30.2247 17.8852 28.9489C17.7525 28.8271 17.624 28.7013 17.4994 28.5708C16.158 27.1646 15.3066 25.2574 15.2332 23.1467C15.2411 23.0488 15.2453 22.9496 15.2453 22.8497C15.2453 22.7901 15.2439 22.7305 15.2411 22.6715C15.2391 22.6317 15.2363 22.5922 15.2332 22.5527C15.2203 22.3961 15.1975 22.2423 15.1649 22.0921C15.0977 21.7797 14.9895 21.4828 14.8466 21.2082C14.2792 20.1185 13.1655 19.377 11.8853 19.377C11.5774 19.377 11.2792 19.4199 10.9955 19.5003C10.8119 19.5524 10.6342 19.6203 10.4643 19.7024C9.31941 20.2562 8.52538 21.4579 8.52538 22.8497C8.52538 24.7665 10.031 26.3224 11.8853 26.3224C13.1655 26.3224 14.2792 25.5811 14.8466 24.4913C15.1646 26.2097 15.9724 27.7493 17.114 28.9489ZM9.07144 14.649C9.06189 14.484 9.05679 14.3177 9.05679 14.1502C9.05679 9.65197 12.5902 6 16.9424 6C21.2947 6 24.8284 9.65197 24.8284 14.1502C24.8284 14.2105 24.8284 14.2707 24.8255 14.3307C24.8228 14.5174 24.8115 14.7025 24.7974 14.8858C24.6484 16.588 23.9933 18.1401 22.9893 19.3793C22.8028 19.6093 22.6043 19.8286 22.3949 20.036C21.8983 20.5275 21.3396 20.9527 20.7326 21.2977C20.5625 21.3942 20.3887 21.4845 20.2116 21.5681C20.1942 21.4474 20.1745 21.3273 20.1526 21.2082C19.8809 19.7407 19.2522 18.4037 18.3635 17.2975C19.1729 16.906 19.8073 16.1905 20.1093 15.3129C20.1809 15.1042 20.2341 14.8863 20.2661 14.6614C20.29 14.4946 20.3024 14.3239 20.3024 14.1502C20.3024 12.2335 18.7967 10.6775 16.9424 10.6775C15.0882 10.6775 13.5825 12.2335 13.5825 14.1502C13.5825 14.2099 13.5839 14.2693 13.5867 14.3283C13.0373 14.2116 12.4682 14.1502 11.8853 14.1502C10.8987 14.1502 9.95149 14.326 9.07144 14.649Z" fill="#F8FAFC"/>
</svg>
