<svg width="34" height="36" viewBox="0 0 34 36" fill="none" xmlns="http://www.w3.org/2000/svg">
<path fill-rule="evenodd" clip-rule="evenodd" d="M10.2355 18.9249L12.1885 18.8623C12.7311 18.8448 13.0317 18.2374 12.7102 17.8079L8.49502 12.1756C8.3547 11.9881 8.06633 11.9974 7.93876 12.1935L4.10729 18.084C3.81508 18.5332 4.15541 19.1201 4.69805 19.1027L6.60054 19.0416C6.74872 20.711 7.25226 22.3406 8.08893 23.8213C9.31822 25.9968 11.2058 27.7434 13.4906 28.8195C15.7753 29.8955 18.3442 30.2478 20.8419 29.8275C23.3395 29.4073 25.6423 28.2353 27.4318 26.4737C29.2211 24.7122 30.4086 22.4481 30.8299 19.9949C31.2512 17.5417 30.8854 15.0205 29.7831 12.7804C28.6809 10.5402 26.8967 8.69173 24.6775 7.49078C22.5569 6.34318 20.1392 5.84103 17.7316 6.044C17.546 6.05965 17.4129 6.22424 17.434 6.406L17.7679 9.28812C17.789 9.46988 17.9561 9.59979 18.1419 9.58627C19.8015 9.46547 21.4639 9.82033 22.9255 10.6113C24.4858 11.4557 25.7402 12.7553 26.5151 14.3302C27.2901 15.9052 27.5472 17.6778 27.2511 19.4026C26.9549 21.1274 26.12 22.7191 24.8619 23.9576C23.6039 25.1961 21.9848 26.0201 20.2288 26.3156C18.4728 26.611 16.6667 26.3634 15.0603 25.6068C13.454 24.8503 12.1269 23.6223 11.2626 22.0928C10.7066 21.1088 10.3598 20.0313 10.2355 18.9249Z" fill="#E2E8F0"/>
</svg>
