<svg width="34" height="36" viewBox="0 0 34 36" fill="none" xmlns="http://www.w3.org/2000/svg">
<path fill-rule="evenodd" clip-rule="evenodd" d="M23.1601 9.34002C23.5135 9.74986 23.8679 10.1555 24.221 10.5597L24.2211 10.5597C25.0719 11.5334 25.9154 12.4989 26.7203 13.4952C27.6145 14.602 28.4604 15.7475 29.3061 16.8927L29.3068 16.8936C29.5131 17.173 29.7194 17.4523 29.9264 17.731C30.0057 17.8378 30.0219 18.0559 29.9702 18.1834C29.445 19.4778 28.419 20.7321 27.2323 21.5634C25.0708 15.4237 21.0949 10.4214 17.0178 5.41564C14.3798 8.05835 12.3621 11.0415 11.1395 14.5382C11.399 14.3208 11.6584 14.1033 11.9178 13.8858C12.5074 13.3915 13.0969 12.8971 13.6875 12.404C14.3099 11.8843 14.9332 11.3657 15.5566 10.8471C15.8301 10.6197 16.1035 10.3922 16.3769 10.1646C16.383 10.1595 16.3891 10.1544 16.3952 10.1493L16.4104 10.1366C16.4684 10.0882 16.5301 10.0247 16.5918 9.96118C16.7283 9.82054 16.8649 9.6799 16.9626 9.70279C17.2295 9.76535 17.4742 10.0016 17.6844 10.2093C19.2349 11.7412 20.5131 13.4821 21.6311 15.3426C21.8464 15.7008 22.0547 16.0631 22.2648 16.4287L22.2652 16.4292C22.362 16.5977 22.4592 16.7668 22.5576 16.9365L17.7049 21.0571C17.6202 20.9458 17.5357 20.8362 17.4517 20.7274C17.2443 20.4587 17.0408 20.195 16.8483 19.9236C16.7412 19.7726 16.7228 19.662 16.9274 19.4784C17.8708 18.6319 18.7756 17.7422 19.674 16.8481C19.7655 16.757 19.7851 16.5074 19.7314 16.3735C19.1914 15.0253 18.2823 13.9381 17.2071 12.9815C17.106 12.8916 16.838 12.8524 16.7349 12.9204C16.6174 12.9979 16.4994 13.075 16.3813 13.1523L16.3811 13.1524C15.7448 13.5685 15.1062 13.9859 14.5288 14.4733C13.4926 15.3481 12.4831 16.254 11.4737 17.1598L11.4736 17.1599C11.1164 17.4805 10.7593 17.801 10.401 18.12C10.2173 18.2837 10.1009 18.2893 9.96141 18.0557C9.26049 16.8818 8.83442 15.5992 8.4082 14.316C8.37021 14.2016 8.33221 14.0872 8.29402 13.9729C8.28462 13.9448 8.27701 13.9158 8.26941 13.8868C8.25532 13.833 8.24126 13.7794 8.21585 13.7317C7.78636 12.9237 8.10247 12.2956 8.66766 11.6932C8.94324 11.3996 9.20591 11.0932 9.46848 10.787C9.8553 10.3359 10.2419 9.88501 10.6691 9.47538C11.6857 8.50053 12.7448 7.56887 13.8035 6.63763C13.974 6.48763 14.1446 6.33764 14.3149 6.18749C14.6875 5.85891 15.0684 5.53934 15.4491 5.21979V5.21976C15.8744 4.8629 16.2996 4.50605 16.7135 4.13667C16.9158 3.9561 17.0757 3.96735 17.2434 4.09519C17.4172 4.22753 17.5915 4.35923 17.7659 4.49095L17.7661 4.49116V4.49117C18.4281 4.99132 19.0903 5.49169 19.7216 6.02787C20.4979 6.68736 21.2378 7.3899 21.9768 8.09163C22.038 8.14973 22.0992 8.20781 22.1604 8.26587C22.3937 8.48722 22.6087 8.72766 22.8299 8.97519C22.9375 9.09558 23.0467 9.21766 23.1601 9.34002ZM22.7731 21.4993C22.4837 21.7412 22.1944 21.983 21.9051 22.2248C21.2449 22.7765 20.5848 23.3283 19.9239 23.8791C19.2574 24.4347 18.59 24.9894 17.9103 25.5544L17.9059 25.558C17.6058 25.8075 17.3032 26.0591 16.9972 26.3136C14.6343 24.2798 12.9976 21.7046 11.4297 19.0024L16.3056 14.8761L17.3225 16.2366L14.1347 19.2177C14.6499 20.6282 15.5172 21.7685 16.5943 22.7694C16.8568 23.0133 17.0855 23.1297 17.4184 22.8852C17.6798 22.6933 17.9488 22.5108 18.2179 22.3284C18.6596 22.0289 19.101 21.7295 19.5076 21.3888C20.4012 20.64 21.2733 19.866 22.1454 19.092L22.1456 19.0918C22.5599 18.7241 22.9742 18.3564 23.3908 17.9915C23.482 17.9116 23.5815 17.8411 23.7058 17.7533V17.7532C23.7718 17.7065 23.8449 17.6548 23.9273 17.5941C24.033 17.8209 24.1419 18.0452 24.2506 18.2688L24.2507 18.269C24.4944 18.7704 24.7364 19.2684 24.9346 19.783C25.1135 20.2474 25.2669 20.7216 25.4202 21.1957H25.4203C25.5804 21.6905 25.7406 22.1855 25.9295 22.6692C26.0956 23.0941 25.9659 23.3876 25.7427 23.696C24.7272 25.0993 23.524 26.3403 22.2469 27.5004C21.2364 28.4183 20.1925 29.3001 19.1486 30.1818H19.1485C18.6917 30.5677 18.235 30.9535 17.781 31.3422C17.6186 31.4815 17.4566 31.6211 17.2817 31.7718C17.1969 31.8449 17.1092 31.9206 17.0168 32C16.859 31.89 16.6971 31.7835 16.5349 31.6767C16.1777 31.4414 15.8187 31.205 15.4956 30.9275C15.3259 30.7817 15.1557 30.6363 14.9855 30.4907L14.9846 30.49C13.955 29.6097 12.9234 28.7278 11.974 27.7677C10.6834 26.4626 9.45275 25.0912 8.28626 23.6753C7.35349 22.5431 6.46334 21.3764 5.57315 20.2096C5.11658 19.6112 4.66002 19.0127 4.19768 18.419C3.98104 18.1407 3.93716 17.8709 4.09239 17.5579C4.70695 16.3189 5.54462 15.2592 6.65105 14.416C6.6773 14.3961 6.71737 14.3939 6.76483 14.3914C6.78947 14.39 6.8161 14.3887 6.84381 14.3845C7.28775 16.0287 7.9851 17.5709 8.84048 19.021C9.97323 20.9414 11.1942 22.8137 12.447 24.6601C13.1815 25.7427 13.988 26.778 14.7938 27.8123C14.9545 28.0186 15.1151 28.2247 15.275 28.4313C15.6487 28.9134 16.0455 29.3779 16.4494 29.8508V29.8509L16.4496 29.851C16.6336 30.0665 16.8191 30.2836 17.0046 30.505C17.1244 30.3803 17.2468 30.2585 17.3688 30.1371V30.137H17.3689C17.6364 29.8707 17.9021 29.6063 18.1354 29.3161C18.2389 29.1873 18.3426 29.0586 18.4465 28.93C19.1335 28.0786 19.8217 27.2257 20.4353 26.324C21.4274 24.866 22.2844 23.3262 22.8582 21.5934C22.8945 21.5046 22.9034 21.4596 22.9124 21.4147V21.4146L22.9123 21.4147C22.9034 21.4596 22.8945 21.5046 22.8614 21.5592C22.8264 21.5572 22.8155 21.5459 22.7889 21.5169C22.7934 21.4566 22.8113 21.4111 22.8302 21.3668L22.7731 21.4993Z" fill="#FAB632"/>
<g opacity="0.7" filter="url(#filter0_f_7_2180)">
<path fill-rule="evenodd" clip-rule="evenodd" d="M23.1601 9.34002C23.5135 9.74986 23.8679 10.1555 24.221 10.5597L24.2211 10.5597C25.0719 11.5334 25.9154 12.4989 26.7203 13.4952C27.6145 14.602 28.4604 15.7475 29.3061 16.8927L29.3068 16.8936C29.5131 17.173 29.7194 17.4523 29.9264 17.731C30.0057 17.8378 30.0219 18.0559 29.9702 18.1834C29.445 19.4778 28.419 20.7321 27.2323 21.5634C25.0708 15.4237 21.0949 10.4214 17.0178 5.41564C14.3798 8.05835 12.3621 11.0415 11.1395 14.5382C11.399 14.3208 11.6584 14.1033 11.9178 13.8858C12.5074 13.3915 13.0969 12.8971 13.6875 12.404C14.3099 11.8843 14.9332 11.3657 15.5566 10.8471C15.8301 10.6197 16.1035 10.3922 16.3769 10.1646C16.383 10.1595 16.3891 10.1544 16.3952 10.1493L16.4104 10.1366C16.4684 10.0882 16.5301 10.0247 16.5918 9.96118C16.7283 9.82054 16.8649 9.6799 16.9626 9.70279C17.2295 9.76535 17.4742 10.0016 17.6844 10.2093C19.2349 11.7412 20.5131 13.4821 21.6311 15.3426C21.8464 15.7008 22.0547 16.0631 22.2648 16.4287L22.2652 16.4292C22.362 16.5977 22.4592 16.7668 22.5576 16.9365L17.7049 21.0571C17.6202 20.9458 17.5357 20.8362 17.4517 20.7274C17.2443 20.4587 17.0408 20.195 16.8483 19.9236C16.7412 19.7726 16.7228 19.662 16.9274 19.4784C17.8708 18.6319 18.7756 17.7422 19.674 16.8481C19.7655 16.757 19.7851 16.5074 19.7314 16.3735C19.1914 15.0253 18.2823 13.9381 17.2071 12.9815C17.106 12.8916 16.838 12.8524 16.7349 12.9204C16.6174 12.9979 16.4994 13.075 16.3813 13.1523L16.3811 13.1524C15.7448 13.5685 15.1062 13.9859 14.5288 14.4733C13.4926 15.3481 12.4831 16.254 11.4737 17.1598L11.4736 17.1599C11.1164 17.4805 10.7593 17.801 10.401 18.12C10.2173 18.2837 10.1009 18.2893 9.96141 18.0557C9.26049 16.8818 8.83442 15.5992 8.4082 14.316C8.37021 14.2016 8.33221 14.0872 8.29402 13.9729C8.28462 13.9448 8.27701 13.9158 8.26941 13.8868C8.25532 13.833 8.24126 13.7794 8.21585 13.7317C7.78636 12.9237 8.10247 12.2956 8.66766 11.6932C8.94324 11.3996 9.20591 11.0932 9.46848 10.787C9.8553 10.3359 10.2419 9.88501 10.6691 9.47538C11.6857 8.50053 12.7448 7.56887 13.8035 6.63763C13.974 6.48763 14.1446 6.33764 14.3149 6.18749C14.6875 5.85891 15.0684 5.53934 15.4491 5.21979V5.21976C15.8744 4.8629 16.2995 4.50605 16.7135 4.13667C16.9158 3.9561 17.0757 3.96735 17.2434 4.09519C17.4172 4.22753 17.5915 4.35923 17.7659 4.49095L17.7661 4.49116V4.49117C18.4281 4.99132 19.0903 5.49169 19.7216 6.02787C20.4979 6.68736 21.2378 7.3899 21.9768 8.09163C22.038 8.14973 22.0992 8.20781 22.1604 8.26587C22.3937 8.48722 22.6087 8.72766 22.8299 8.97519C22.9375 9.09558 23.0467 9.21766 23.1601 9.34002ZM22.7731 21.4993C22.4837 21.7412 22.1944 21.983 21.9051 22.2248C21.2449 22.7765 20.5848 23.3283 19.9239 23.8791C19.2574 24.4347 18.59 24.9894 17.9103 25.5544L17.9059 25.558C17.6058 25.8075 17.3032 26.0591 16.9972 26.3136C14.6343 24.2798 12.9976 21.7046 11.4297 19.0024L16.3056 14.8761L17.3225 16.2366L14.1347 19.2177C14.6499 20.6282 15.5172 21.7685 16.5943 22.7694C16.8568 23.0133 17.0855 23.1297 17.4184 22.8852C17.6798 22.6933 17.9488 22.5108 18.2179 22.3284C18.6596 22.0289 19.101 21.7295 19.5076 21.3888C20.4012 20.64 21.2733 19.866 22.1454 19.092L22.1456 19.0918C22.5599 18.7241 22.9742 18.3564 23.3908 17.9915C23.482 17.9116 23.5815 17.8411 23.7058 17.7533V17.7532C23.7718 17.7065 23.8449 17.6548 23.9273 17.5941C24.033 17.8209 24.1419 18.0452 24.2506 18.2688L24.2507 18.269C24.4944 18.7704 24.7364 19.2684 24.9346 19.783C25.1135 20.2474 25.2669 20.7216 25.4202 21.1957H25.4203C25.5804 21.6905 25.7406 22.1855 25.9295 22.6692C26.0956 23.0941 25.9659 23.3876 25.7427 23.696C24.7272 25.0993 23.524 26.3403 22.2469 27.5004C21.2364 28.4183 20.1925 29.3001 19.1486 30.1818H19.1485C18.6917 30.5677 18.235 30.9535 17.781 31.3422C17.6186 31.4815 17.4566 31.6211 17.2817 31.7718C17.1969 31.8449 17.1092 31.9206 17.0168 32C16.859 31.89 16.6971 31.7835 16.5349 31.6767C16.1777 31.4414 15.8187 31.205 15.4956 30.9275C15.3259 30.7817 15.1557 30.6363 14.9855 30.4907L14.9846 30.4899C13.955 29.6097 12.9234 28.7278 11.974 27.7677C10.6834 26.4626 9.45275 25.0912 8.28626 23.6753C7.35349 22.5431 6.46334 21.3764 5.57315 20.2096C5.11658 19.6112 4.66002 19.0127 4.19768 18.419C3.98104 18.1407 3.93716 17.8709 4.09239 17.5579C4.70695 16.3189 5.54462 15.2592 6.65105 14.416C6.6773 14.3961 6.71737 14.3939 6.76483 14.3914C6.78947 14.39 6.8161 14.3887 6.84381 14.3845C7.28775 16.0287 7.9851 17.5709 8.84048 19.021C9.97323 20.9414 11.1942 22.8137 12.447 24.6601C13.1815 25.7427 13.988 26.778 14.7938 27.8123C14.9545 28.0186 15.1151 28.2247 15.275 28.4313C15.6487 28.9134 16.0455 29.3779 16.4494 29.8508V29.8509L16.4496 29.851C16.6336 30.0665 16.8191 30.2836 17.0046 30.505C17.1244 30.3803 17.2468 30.2585 17.3688 30.1371V30.137H17.3689C17.6364 29.8707 17.9021 29.6063 18.1354 29.3161C18.2389 29.1873 18.3426 29.0586 18.4465 28.93C19.1335 28.0786 19.8217 27.2257 20.4353 26.324C21.4274 24.866 22.2844 23.3262 22.8582 21.5934C22.8945 21.5046 22.9034 21.4596 22.9124 21.4147V21.4146L22.9123 21.4147C22.9034 21.4596 22.8945 21.5046 22.8614 21.5592C22.8264 21.5572 22.8155 21.5459 22.7889 21.5169C22.7934 21.4566 22.8113 21.4111 22.8302 21.3668L22.7731 21.4993Z" fill="#FAB632"/>
</g>
<defs>
<filter id="filter0_f_7_2180" x="0" y="0" width="34" height="36" filterUnits="userSpaceOnUse" color-interpolation-filters="sRGB">
<feFlood flood-opacity="0" result="BackgroundImageFix"/>
<feBlend mode="normal" in="SourceGraphic" in2="BackgroundImageFix" result="shape"/>
<feGaussianBlur stdDeviation="2" result="effect1_foregroundBlur_7_2180"/>
</filter>
</defs>
</svg>
