<svg width="34" height="36" viewBox="0 0 34 36" fill="none" xmlns="http://www.w3.org/2000/svg">
<path fill-rule="evenodd" clip-rule="evenodd" d="M17.5 31C22.7467 31 27 26.756 27 21.5208C27 16.2856 18.5857 5 17.5 5C16.4143 5 8 16.2856 8 21.5208C8 26.756 12.2533 31 17.5 31ZM11.7465 22.3896C11.7465 19.1637 16.961 11.6755 17.6338 11.6755C18.3066 11.6755 23.5211 19.1637 23.5211 22.3896C23.5191 22.3911 23.5142 22.3963 23.5061 22.4048C23.3346 22.5854 21.7744 24.2289 18.3028 21.9557C14.0211 19.152 12.0587 21.7999 11.7465 22.3896Z" fill="#F8FAFC"/>
</svg>
