<svg width="34" height="36" viewBox="0 0 34 36" fill="none" xmlns="http://www.w3.org/2000/svg">
<mask id="mask0_684_5054" style="mask-type:luminance" maskUnits="userSpaceOnUse" x="4" y="5" width="26" height="26">
<path d="M30 5H4V31H30V5Z" fill="white"/>
</mask>
<g mask="url(#mask0_684_5054)">
<path d="M25.0905 24.0002L21.875 26.4502V24.0111C21.875 23.9097 21.9224 23.8141 22.0031 23.7526L25.0905 21.4002C25.2069 21.3116 25.3681 21.3116 25.4845 21.4002L28.572 23.7526C28.6526 23.8141 28.7 23.9097 28.7 24.0111V26.4502L25.4845 24.0002C25.3681 23.9116 25.2069 23.9116 25.0905 24.0002Z" fill="#F8FAFC"/>
<path d="M25.0905 27.2502L21.875 29.7002V27.2611C21.875 27.1597 21.9224 27.0641 22.0031 27.0026L25.0905 24.6502C25.2069 24.5616 25.3681 24.5616 25.4845 24.6502L28.572 27.0026C28.6526 27.0641 28.7 27.1597 28.7 27.2611V29.7002L25.4845 27.2502C25.3681 27.1616 25.2069 27.1616 25.0905 27.2502Z" fill="#F8FAFC"/>
<path d="M29.0225 5.7218H24.5063C24.4201 5.7218 24.3374 5.75604 24.2765 5.81699L24.1181 5.97543C24.0571 6.03638 24.0229 6.11904 24.0229 6.20524V7.9524C24.0229 8.12479 23.9544 8.29012 23.8325 8.41202L21.4594 10.7851C21.2056 11.0389 20.794 11.0389 20.5402 10.7851L18.6322 8.8771C18.5103 8.75519 18.345 8.68672 18.1726 8.68672H17.0833C16.9109 8.68672 16.7455 8.75519 16.6237 8.8771L16.3649 9.13583C16.243 9.25774 16.1745 9.42307 16.1745 9.59545V10.6848C16.1745 10.8572 16.243 11.0225 16.3649 11.1444L16.5288 11.3083C16.7826 11.5622 16.7826 11.9737 16.5288 12.2275L6.0717 22.6847C5.87462 22.8817 5.7461 23.1369 5.70509 23.4126L4.72179 30.0225L29.0225 5.7218Z" fill="#F8FAFC"/>
<path d="M29.0225 5.7218V10.238C29.0225 10.3242 28.9883 10.4069 28.9273 10.4678L28.7689 10.6263C28.708 10.6872 28.6253 10.7215 28.5391 10.7215H26.7919C26.6195 10.7215 26.4542 10.79 26.3323 10.9119L23.9593 13.2849C23.7054 13.5388 23.7054 13.9503 23.9593 14.2041L25.8672 16.1121C25.9891 16.234 26.0576 16.3994 26.0576 16.5717V17.6611C26.0576 17.8334 25.9891 17.9988 25.8672 18.1207L25.6085 18.3794C25.4866 18.5013 25.3213 18.5698 25.1489 18.5698H24.0596C23.8871 18.5698 23.7218 18.5013 23.5999 18.3794L23.436 18.2155C23.1822 17.9617 22.7706 17.9617 22.5168 18.2155L12.0597 28.6726C11.8626 28.8697 11.6074 28.9982 11.3317 29.0392L4.72179 30.0225L29.0225 5.7218Z" fill="#F8FAFC"/>
</g>
</svg>
