<svg width="32" height="36" viewBox="0 0 32 36" fill="none" xmlns="http://www.w3.org/2000/svg">
<path fill-rule="evenodd" clip-rule="evenodd" d="M6.52797 19.4585C7.07446 18.719 7.69088 18.071 8.56398 17.7011L8.70199 17.6513C8.65599 17.6679 8.60999 17.6845 8.57911 17.7167C8.6036 17.7417 8.61394 17.7522 8.63999 17.7483C8.63522 17.7546 8.63006 17.7612 8.62443 17.7682C7.42104 19.3563 6.72635 21.031 7.59083 22.926C8.29424 24.4679 9.68047 25.3103 11.2625 25.995C10.689 24.9319 10.2581 23.9266 10.1007 22.8053C9.95627 21.7765 10.1023 20.8295 10.6492 19.9476C11.3359 18.8402 12.3946 18.2009 13.6081 17.7932C14.0944 17.6298 14.5922 17.4989 15.1076 17.3634H15.1078L15.1084 17.3632C15.3453 17.301 15.5859 17.2377 15.8308 17.1699C14.4778 16.7392 13.2681 16.1199 12.2532 15.1917C11.2216 14.2483 10.6682 13.0546 10.5414 11.6073C10.4222 11.8482 10.3098 12.0816 10.2004 12.3088L10.2003 12.309L10.2002 12.3091H10.2002C9.95423 12.82 9.72327 13.2997 9.46316 13.7637C9.18944 14.252 8.86842 14.7234 8.50965 15.1554C8.21653 15.5084 7.90535 15.847 7.59416 16.1856C7.29401 16.5122 6.99385 16.8387 6.70988 17.1783C5.61907 18.4825 4.7868 19.8983 4.54788 21.6235C4.37821 22.8486 4.64944 23.8748 5.52263 24.756C6.51997 25.7624 7.74315 26.4449 8.96643 27.1274H8.96647L8.96694 27.1277C9.16697 27.2393 9.36698 27.3509 9.56602 27.4639C9.88383 27.6444 10.2023 27.8238 10.5208 28.0031L10.5215 28.0035L10.5224 28.004L10.5227 28.0042C11.3324 28.4602 12.1422 28.9162 12.9406 29.3905C14.1511 30.1096 15.2525 30.9677 16.1623 32C16.3597 31.8296 16.5548 31.6613 16.7485 31.4941C17.1715 31.1291 17.5872 30.7703 18.0032 30.4118C19.2006 29.3798 20.5232 28.5368 21.9595 27.8564C23.5877 27.0848 25.1609 26.2302 26.3266 24.8174C27.6411 23.2243 27.8396 21.7192 26.9804 19.9039C26.1752 18.2024 24.8 16.9407 23.3262 15.7908C22.4739 15.1257 21.7094 14.4099 21.4393 13.3284C21.3408 12.9343 21.2546 12.5373 21.1678 12.1381V12.138V12.138L21.1677 12.1379L21.1674 12.1361C21.1282 11.9559 21.089 11.7752 21.0485 11.5941C20.358 12.2464 19.9721 13.0795 19.7721 13.9969C19.5178 15.1633 19.6392 16.2384 20.6248 17.0931C21.0108 17.4278 21.2191 17.8779 21.3128 18.4486C21.2421 18.3936 21.1743 18.345 21.1103 18.2992H21.1103C20.9815 18.2071 20.8682 18.1259 20.7774 18.0252C20.6894 17.9274 20.6007 17.8299 20.5119 17.7323H20.5119C20.1183 17.2999 19.7239 16.8665 19.3775 16.3997C18.8125 15.6386 18.3791 14.8092 18.5292 13.8152C18.6439 13.0549 18.7617 12.2945 18.9088 11.5399C18.968 11.2358 19.0548 10.937 19.1478 10.6169C19.1915 10.4665 19.2365 10.3115 19.2807 10.149C18.281 10.6108 17.4718 11.1876 16.8033 11.9321C16.1641 12.644 15.7859 13.4809 15.9278 14.4491C15.9735 14.7616 16.0814 15.0654 16.1892 15.3692C16.2381 15.5069 16.287 15.6445 16.3301 15.783L16.3784 15.9104C16.3623 15.868 16.3454 15.8263 16.3144 15.7979C16.2887 15.8224 16.2782 15.8326 16.2826 15.8591C16.2759 15.8543 16.2687 15.8491 16.261 15.8434C16.1897 15.7744 16.1193 15.7109 16.0516 15.6497C15.907 15.5193 15.7745 15.3998 15.6707 15.2598C15.0578 14.4337 14.916 12.7845 15.7271 12.0081C16.2363 11.5207 16.7455 11.0325 17.24 10.5307C18.0702 9.68811 18.3191 8.71381 17.9684 7.57441C17.5718 6.2858 16.7584 5.2578 15.8994 4.17219C15.8541 4.11497 15.8087 4.05759 15.7631 4C15.75 4.07219 15.7377 4.1365 15.7262 4.19564L15.7262 4.19627V4.19637L15.7261 4.19643C15.7036 4.31351 15.685 4.41032 15.6717 4.50782C15.6571 4.61488 15.6459 4.7225 15.6345 4.8301V4.83016V4.83018C15.6157 5.00941 15.5969 5.18858 15.5628 5.36498C15.2993 6.72926 14.5209 7.81668 13.651 8.87413C13.1136 9.52739 12.5933 10.2269 12.2365 10.9831C11.55 12.4381 11.9819 13.8197 13.0609 14.8286C14.1333 15.8312 15.4679 16.4087 16.7982 16.9766C18.2559 17.5988 19.6338 18.3287 20.7149 19.4977C21.339 20.1726 21.8552 20.9412 21.9405 21.8618C22.0927 23.5035 21.4556 24.8356 20.0627 25.7797C19.1558 26.3943 18.1229 26.6307 17.0301 26.7629C16.0929 26.8762 15.2627 26.7062 14.4471 26.3049C13.5105 25.8441 13.2121 24.9914 13.3184 24.3517C13.4856 23.3457 13.9925 22.524 14.9513 21.9436C14.8879 21.9324 14.8304 21.918 14.7775 21.9049H14.7774C14.6745 21.8794 14.5884 21.858 14.5082 21.871C14.4132 21.8863 14.3179 21.9013 14.2226 21.9162C13.7555 21.9895 13.287 22.063 12.8329 22.1853C10.9817 22.6838 11.0097 24.7742 11.9755 25.7984C12.9795 26.8631 14.3185 27.2263 15.708 27.3631C17.0766 27.4977 18.4424 27.349 19.7556 26.8965C21.192 26.4015 22.5339 25.7725 23.5052 24.5508C24.6122 23.1585 24.8483 21.5967 24.5017 19.9179C24.4288 19.5646 24.3201 19.2183 24.2013 18.8396C24.1436 18.6559 24.0836 18.4646 24.0241 18.2613C24.1517 18.3558 24.2722 18.4446 24.3878 18.5299L24.388 18.5301L24.3884 18.5303C24.6272 18.7065 24.845 18.8672 25.0612 19.0299C25.9529 19.701 26.4151 20.6099 26.4317 21.6896C26.451 22.9472 25.8425 23.9626 24.8052 24.6447C23.6285 25.4184 22.389 26.1074 21.1409 26.768C19.3994 27.6897 17.7395 28.7177 16.2805 30.012C16.0381 29.8422 15.8004 29.6678 15.5636 29.4941C15.038 29.1084 14.5168 28.7258 13.9588 28.4047C13.0652 27.8903 12.1448 27.4207 11.2245 26.9511H11.2244H11.2244L11.2238 26.9508L11.2235 26.9506C10.8593 26.7648 10.4952 26.5789 10.1327 26.3903C10.0225 26.333 9.91218 26.2763 9.80194 26.2194L9.80173 26.2193L9.80153 26.2193C8.68799 25.6456 7.58321 25.0765 6.75702 24.0694C5.85582 22.9708 5.63722 20.6637 6.52797 19.4585ZM18.1746 19.0946C17.4403 18.6192 16.6081 18.5221 15.7111 18.5893C14.2389 18.9299 13.2704 19.8509 12.4284 21.0909C12.4869 21.0702 12.5331 21.0541 12.5714 21.0408C12.6363 21.0182 12.6787 21.0035 12.7206 20.9873C13.572 20.6581 14.4472 20.4021 15.3697 20.5139C17.3313 20.7517 18.2821 23.0445 17.5682 24.5239C17.5131 24.6381 17.4477 24.7477 17.3822 24.8571C17.3519 24.9079 17.3215 24.9586 17.2921 25.0099L17.3721 25.1012C17.5211 25.0212 17.6729 24.945 17.8246 24.8689C18.1614 24.6999 18.4982 24.5309 18.8049 24.3199C19.598 23.7738 20.1753 23.0428 20.1469 22.0501C20.1081 20.695 19.2618 19.7987 18.1746 19.0946Z" fill="#EF7938"/>
<g opacity="0.7" filter="url(#filter0_f_7_2170)">
<path fill-rule="evenodd" clip-rule="evenodd" d="M6.52797 19.4585C7.07446 18.719 7.69088 18.071 8.56398 17.7011L8.70199 17.6513C8.656 17.6679 8.60999 17.6845 8.57911 17.7167C8.6036 17.7417 8.61394 17.7522 8.63999 17.7483C8.63522 17.7546 8.63006 17.7612 8.62443 17.7682C7.42104 19.3563 6.72635 21.031 7.59083 22.926C8.29424 24.4679 9.68047 25.3103 11.2625 25.995C10.689 24.9319 10.2581 23.9266 10.1007 22.8053C9.95627 21.7765 10.1023 20.8295 10.6492 19.9476C11.3359 18.8402 12.3946 18.2009 13.6081 17.7932C14.0944 17.6298 14.5922 17.4989 15.1076 17.3634H15.1078L15.1084 17.3632C15.3453 17.301 15.5859 17.2377 15.8308 17.1699C14.4778 16.7392 13.2681 16.1199 12.2532 15.1917C11.2216 14.2483 10.6682 13.0546 10.5414 11.6073C10.4222 11.8482 10.3098 12.0816 10.2004 12.3088L10.2003 12.309L10.2002 12.3091H10.2002C9.95423 12.82 9.72327 13.2997 9.46316 13.7637C9.18944 14.252 8.86842 14.7234 8.50965 15.1554C8.21653 15.5084 7.90535 15.847 7.59416 16.1856C7.29401 16.5122 6.99385 16.8387 6.70988 17.1783C5.61907 18.4825 4.7868 19.8983 4.54788 21.6235C4.37821 22.8486 4.64944 23.8748 5.52263 24.756C6.51997 25.7624 7.74315 26.4449 8.96643 27.1274H8.96647L8.96694 27.1277C9.16697 27.2393 9.36698 27.3509 9.56602 27.4639C9.88383 27.6444 10.2023 27.8238 10.5208 28.0031L10.5215 28.0035L10.5224 28.004L10.5227 28.0042C11.3324 28.4602 12.1422 28.9162 12.9406 29.3905C14.1511 30.1096 15.2525 30.9677 16.1623 32C16.3597 31.8296 16.5548 31.6613 16.7485 31.4941C17.1715 31.1291 17.5872 30.7703 18.0032 30.4118C19.2006 29.3798 20.5232 28.5368 21.9595 27.8564C23.5877 27.0848 25.1609 26.2302 26.3266 24.8174C27.6411 23.2243 27.8396 21.7192 26.9804 19.9039C26.1752 18.2024 24.8 16.9407 23.3262 15.7908C22.4739 15.1257 21.7094 14.4099 21.4393 13.3284C21.3408 12.9343 21.2546 12.5373 21.1678 12.1381V12.138V12.138L21.1677 12.1379L21.1674 12.1361C21.1282 11.9559 21.089 11.7752 21.0485 11.5941C20.358 12.2464 19.9721 13.0795 19.7721 13.9969C19.5178 15.1633 19.6392 16.2384 20.6248 17.0931C21.0108 17.4278 21.2191 17.8779 21.3128 18.4486C21.2421 18.3936 21.1743 18.345 21.1104 18.2992H21.1103C20.9815 18.2071 20.8682 18.1259 20.7774 18.0252C20.6894 17.9274 20.6007 17.8299 20.5119 17.7323H20.5119C20.1183 17.2999 19.7239 16.8665 19.3775 16.3997C18.8125 15.6386 18.3791 14.8092 18.5292 13.8152C18.6439 13.0549 18.7617 12.2945 18.9088 11.5399C18.968 11.2358 19.0548 10.937 19.1478 10.6169C19.1915 10.4665 19.2365 10.3115 19.2807 10.149C18.281 10.6108 17.4718 11.1876 16.8033 11.9321C16.1641 12.644 15.7859 13.4809 15.9278 14.4491C15.9735 14.7616 16.0814 15.0654 16.1892 15.3692C16.2381 15.5069 16.287 15.6445 16.3301 15.783L16.3784 15.9104C16.3623 15.868 16.3454 15.8263 16.3144 15.7979C16.2887 15.8224 16.2782 15.8326 16.2826 15.8591C16.2759 15.8543 16.2687 15.8491 16.261 15.8434C16.1897 15.7744 16.1193 15.7109 16.0516 15.6497C15.907 15.5193 15.7745 15.3998 15.6707 15.2598C15.0578 14.4337 14.916 12.7845 15.7271 12.0081C16.2363 11.5207 16.7455 11.0325 17.24 10.5307C18.0702 9.68811 18.3191 8.71381 17.9684 7.57441C17.5718 6.2858 16.7584 5.2578 15.8994 4.17219C15.8541 4.11497 15.8087 4.05759 15.7631 4C15.75 4.07219 15.7377 4.1365 15.7262 4.19564L15.7262 4.19627V4.19637L15.7261 4.19643C15.7036 4.31351 15.685 4.41032 15.6717 4.50782C15.6571 4.61488 15.6459 4.7225 15.6345 4.8301V4.83016V4.83018C15.6157 5.00941 15.5969 5.18858 15.5628 5.36498C15.2993 6.72926 14.5209 7.81668 13.651 8.87413C13.1136 9.52739 12.5933 10.2269 12.2365 10.9831C11.55 12.4381 11.9819 13.8197 13.0609 14.8286C14.1333 15.8312 15.4679 16.4087 16.7982 16.9766C18.2559 17.5988 19.6338 18.3287 20.7149 19.4977C21.339 20.1726 21.8552 20.9412 21.9405 21.8618C22.0927 23.5035 21.4556 24.8356 20.0627 25.7797C19.1558 26.3943 18.1229 26.6307 17.0301 26.7629C16.0929 26.8762 15.2627 26.7062 14.4471 26.3049C13.5105 25.8441 13.2121 24.9914 13.3184 24.3517C13.4856 23.3457 13.9925 22.524 14.9513 21.9436C14.8879 21.9324 14.8304 21.918 14.7775 21.9049H14.7774C14.6745 21.8794 14.5884 21.858 14.5082 21.871C14.4132 21.8863 14.3179 21.9013 14.2226 21.9162C13.7555 21.9895 13.287 22.063 12.8329 22.1853C10.9817 22.6838 11.0097 24.7742 11.9755 25.7984C12.9795 26.8631 14.3185 27.2263 15.708 27.3631C17.0766 27.4977 18.4424 27.349 19.7556 26.8965C21.192 26.4015 22.5339 25.7725 23.5052 24.5508C24.6122 23.1585 24.8483 21.5967 24.5017 19.9179C24.4288 19.5646 24.3201 19.2183 24.2013 18.8396C24.1436 18.6559 24.0836 18.4646 24.0241 18.2613C24.1517 18.3558 24.2722 18.4446 24.3878 18.5299L24.388 18.5301L24.3884 18.5303C24.6272 18.7065 24.845 18.8672 25.0612 19.0299C25.9529 19.701 26.4151 20.6099 26.4317 21.6896C26.451 22.9472 25.8425 23.9626 24.8052 24.6447C23.6285 25.4184 22.389 26.1074 21.1409 26.768C19.3994 27.6897 17.7395 28.7177 16.2805 30.012C16.0381 29.8422 15.8004 29.6678 15.5636 29.4941C15.038 29.1084 14.5168 28.7258 13.9588 28.4047C13.0652 27.8903 12.1448 27.4207 11.2245 26.9511H11.2244H11.2244L11.2238 26.9507L11.2235 26.9506C10.8593 26.7648 10.4952 26.5789 10.1327 26.3903C10.0225 26.333 9.91218 26.2763 9.80194 26.2194L9.80173 26.2193L9.80153 26.2193C8.68799 25.6456 7.58321 25.0765 6.75702 24.0694C5.85582 22.9708 5.63722 20.6637 6.52797 19.4585ZM18.1746 19.0946C17.4403 18.6192 16.6081 18.5221 15.7111 18.5893C14.2389 18.9299 13.2704 19.8509 12.4284 21.0909C12.4869 21.0702 12.5331 21.0541 12.5714 21.0408C12.6363 21.0182 12.6787 21.0035 12.7206 20.9873C13.572 20.6581 14.4472 20.4021 15.3697 20.5139C17.3313 20.7517 18.2821 23.0445 17.5682 24.5239C17.5131 24.6381 17.4477 24.7477 17.3822 24.8571C17.3519 24.9079 17.3215 24.9586 17.2921 25.0099L17.3721 25.1012C17.5211 25.0212 17.6729 24.945 17.8246 24.8689C18.1614 24.6999 18.4982 24.5309 18.8049 24.3199C19.598 23.7738 20.1753 23.0428 20.1469 22.0501C20.1081 20.695 19.2618 19.7987 18.1746 19.0946Z" fill="#EF7938"/>
</g>
<defs>
<filter id="filter0_f_7_2170" x="0.5" y="0" width="31" height="36" filterUnits="userSpaceOnUse" color-interpolation-filters="sRGB">
<feFlood flood-opacity="0" result="BackgroundImageFix"/>
<feBlend mode="normal" in="SourceGraphic" in2="BackgroundImageFix" result="shape"/>
<feGaussianBlur stdDeviation="2" result="effect1_foregroundBlur_7_2170"/>
</filter>
</defs>
</svg>
