<?xml version="1.0" encoding="UTF-8" standalone="no"?>
<svg xmlns="http://www.w3.org/2000/svg" version="1.2" baseProfile="tiny" viewBox="0.00 0.00 157.00 156.00">
<path fill="#faf2e3" d="
  M 35.89 76.27
  C 29.74 73.45 20.47 71.19 15.61 65.10
  C 3.94 50.50 16.81 19.99 25.41 6.94
  C 26.88 4.70 33.30 7.98 35.36 9.16
  C 36.96 10.07 37.29 10.92 36.68 12.74
  Q 31.27 28.94 30.88 42.99
  C 30.68 50.17 41.06 54.94 46.94 55.71
  A 2.97 2.94 27.8 0 0 49.27 55.00
  C 69.24 37.40 91.53 36.29 111.45 54.96
  C 112.27 55.72 113.20 55.87 114.23 55.72
  C 122.80 54.41 130.20 49.33 129.43 39.86
  Q 128.24 25.25 123.34 11.39
  A 0.84 0.83 59.2 0 1 123.56 10.50
  Q 128.07 6.22 134.35 6.29
  A 0.99 0.99 0.0 0 1 135.19 6.76
  C 144.19 21.38 152.39 41.13 148.66 58.49
  C 146.62 68.01 134.12 73.37 125.70 75.58
  Q 124.16 75.99 124.63 77.51
  C 135.13 110.83 114.92 142.05 81.31 148.39
  Q 79.01 148.83 73.50 147.10
  C 46.23 138.56 28.38 112.58 34.78 84.05
  Q 35.55 80.60 36.32 77.15
  Q 36.45 76.54 35.89 76.27
  Z"
/>
<path fill="#db8f62" d="
  M 70.26 110.85
  Q 57.98 103.13 48.54 92.27
  C 43.61 86.60 39.52 81.96 42.82 75.10
  C 48.08 64.16 58.78 52.41 70.88 48.48
  Q 71.21 48.38 71.52 48.44
  Q 71.99 48.55 72.15 48.67
  A 0.98 0.97 39.7 0 1 72.29 50.15
  C 66.38 56.22 60.06 63.29 56.31 71.01
  C 53.69 76.41 55.68 80.67 59.47 84.79
  Q 65.39 91.23 76.60 99.63
  C 81.66 103.43 78.84 110.85 76.47 117.07
  Q 76.28 117.56 76.40 118.06
  Q 77.33 121.96 81.28 122.60
  Q 81.78 122.68 82.22 122.42
  Q 84.93 120.81 86.16 117.91
  A 1.09 1.07 42.0 0 0 86.10 116.95
  C 83.72 112.89 80.52 105.05 83.29 101.22
  Q 84.00 100.24 86.19 98.77
  Q 95.63 92.45 103.88 82.40
  C 107.88 77.53 107.22 73.90 103.87 68.67
  Q 97.10 58.14 88.14 49.53
  A 0.58 0.58 0.0 0 1 88.48 48.54
  Q 90.03 48.37 91.77 48.99
  C 101.95 52.60 110.17 61.03 115.79 69.97
  C 120.49 77.45 122.75 81.05 116.90 88.27
  Q 106.51 101.09 92.80 110.03
  A 2.02 2.01 61.0 0 0 92.08 112.56
  C 93.86 116.42 97.67 121.45 92.55 124.91
  C 87.62 128.24 84.36 130.55 81.79 135.99
  A 0.72 0.71 43.9 0 1 80.51 136.01
  Q 76.03 127.40 67.69 122.37
  A 1.68 1.67 27.0 0 1 67.01 120.29
  L 70.56 111.78
  Q 70.81 111.19 70.26 110.85
  Z"
/>
<path fill="#db8f62" d="
  M 95.33 79.06
  Q 90.89 87.84 80.93 92.16
  A 0.98 0.97 46.8 0 1 80.10 92.13
  C 73.98 88.89 65.39 82.25 65.59 74.49
  Q 65.66 71.98 67.72 68.79
  Q 73.79 59.39 80.22 50.47
  Q 80.63 49.91 81.06 50.45
  Q 86.73 57.51 91.81 65.13
  C 95.29 70.36 98.03 73.73 95.33 79.06
  Z"
/>
<path fill="#faf2e3" d="
  M 91.85 77.57
  C 89.74 82.28 83.53 89.43 77.88 86.68
  C 73.02 84.32 66.83 76.51 70.39 70.64
  Q 74.67 63.61 79.65 56.66
  A 1.21 1.20 42.8 0 1 81.55 56.59
  Q 87.09 63.15 91.38 71.10
  Q 93.22 74.52 91.85 77.57
  Z"
/>
<path fill="#db8f62" d="
  M 81.39 140.31
  Q 83.14 137.61 84.80 134.82
  C 87.54 130.18 89.95 129.10 94.31 126.04
  Q 96.61 124.43 97.57 120.92
  Q 97.70 120.46 97.51 120.03
  L 94.00 111.96
  A 0.90 0.90 0.0 0 1 95.30 110.84
  L 109.29 119.63
  A 1.03 1.03 0.0 0 1 109.18 121.43
  Q 99.51 126.05 90.05 131.54
  Q 89.29 131.99 88.07 134.24
  Q 84.97 139.96 82.04 145.49
  A 1.18 1.17 -41.1 0 1 79.90 145.35
  C 77.71 139.36 74.00 132.16 68.09 128.94
  Q 60.58 124.86 53.27 121.29
  A 0.96 0.96 0.0 0 1 53.23 119.59
  Q 60.25 115.72 66.40 111.24
  Q 66.75 110.99 67.10 110.95
  Q 68.42 110.82 68.34 111.91
  A 0.78 0.71 60.9 0 1 68.29 112.12
  L 64.67 120.04
  A 2.55 2.55 0.0 0 0 65.12 122.84
  C 68.38 126.35 72.13 128.91 75.62 132.16
  C 77.63 134.03 78.99 137.96 80.62 140.32
  Q 81.02 140.90 81.39 140.31
  Z"
/>
</svg>
